<svg width="20" height="20" viewBox="0 0 20 20" fill="none" xmlns="http://www.w3.org/2000/svg">
<g clip-path="url(#clip0_717_1090)">
<path d="M0 8.75011C0 9.44151 0.558594 10.0001 1.25 10.0001C1.94141 10.0001 2.5 9.44151 2.5 8.75011C2.5 6.6798 4.17969 5.00011 6.25 5.00011H12.5V6.25011C12.5 6.75401 12.8047 7.21105 13.2734 7.40636C13.7422 7.60167 14.2773 7.4923 14.6367 7.13683L17.1367 4.63683C17.625 4.14855 17.625 3.35558 17.1367 2.8673L14.6367 0.367296C14.2773 0.00792099 13.7422 -0.0975477 13.2734 0.0977648C12.8047 0.293077 12.5 0.746202 12.5 1.25011V2.50011H6.25C2.79688 2.50011 0 5.29698 0 8.75011ZM20 11.2501C20 10.5587 19.4414 10.0001 18.75 10.0001C18.0586 10.0001 17.5 10.5587 17.5 11.2501C17.5 13.3204 15.8203 15.0001 13.75 15.0001H7.5V13.7501C7.5 13.2462 7.19531 12.7892 6.72656 12.5939C6.25781 12.3985 5.72266 12.5079 5.36328 12.8634L2.86328 15.3634C2.375 15.8517 2.375 16.6446 2.86328 17.1329L5.36328 19.6329C5.72266 19.9923 6.25781 20.0978 6.72656 19.9025C7.19531 19.7071 7.5 19.254 7.5 18.7462V17.5001H13.75C17.2031 17.5001 20 14.7032 20 11.2501Z" fill="#009CDE"/>
</g>
<defs>
<clipPath id="clip0_717_1090">
<path d="M0 0H20V20H0V0Z" fill="white"/>
</clipPath>
</defs>
</svg>
