<svg width="29" height="24" viewBox="0 0 29 24" fill="none" xmlns="http://www.w3.org/2000/svg">
<path d="M29 24H0V0H29V24Z" stroke="#E5E7EB"/>
<g clip-path="url(#clip0_738_6381)">
<path d="M16.25 11.25V0.778125C16.25 0.35625 16.5781 0 17 0C22.7984 0 27.5 4.70156 27.5 10.5C27.5 10.9219 27.1438 11.25 26.7219 11.25H16.25ZM3.5 12.75C3.5 7.06406 7.72344 2.35781 13.2031 1.60781C13.6344 1.54688 14 1.89375 14 2.32969V13.5L21.3359 20.8359C21.65 21.15 21.6266 21.6656 21.2656 21.9188C19.4281 23.2313 17.1781 24 14.75 24C8.53906 24 3.5 18.9656 3.5 12.75ZM28.175 13.5C28.6109 13.5 28.9531 13.8656 28.8969 14.2969C28.5359 16.9172 27.275 19.2469 25.4328 20.9672C25.1516 21.2297 24.7109 21.2109 24.4391 20.9344L17 13.5H28.175Z" fill="#009CDE"/>
</g>
<defs>
<clipPath id="clip0_738_6381">
<path d="M2 0H29V24H2V0Z" fill="white"/>
</clipPath>
</defs>
</svg>
