<svg width="38" height="36" viewBox="0 0 38 36" fill="none" xmlns="http://www.w3.org/2000/svg">
<path d="M38 36H0V0H38V36Z" stroke="#E5E7EB"/>
<g clip-path="url(#clip0_738_9348)">
<path d="M23.2651 3.07055C22.269 2.78344 21.2319 3.36352 20.9448 4.35962L13.4448 30.6096C13.1577 31.6057 13.7378 32.6428 14.7339 32.9299C15.73 33.217 16.7671 32.637 17.0542 31.6409L24.5542 5.39087C24.8413 4.39477 24.2612 3.35766 23.2651 3.07055ZM27.9878 10.1077C27.2554 10.8401 27.2554 12.0295 27.9878 12.762L33.2202 18.0002L27.9819 23.2385C27.2495 23.9709 27.2495 25.1604 27.9819 25.8928C28.7144 26.6252 29.9038 26.6252 30.6362 25.8928L37.1987 19.3303C37.9311 18.5979 37.9311 17.4084 37.1987 16.676L30.6362 10.1135C29.9038 9.3811 28.7144 9.3811 27.9819 10.1135L27.9878 10.1077ZM10.0171 10.1077C9.28467 9.37524 8.09521 9.37524 7.36279 10.1077L0.800293 16.6702C0.0678711 17.4026 0.0678711 18.592 0.800293 19.3245L7.36279 25.887C8.09521 26.6194 9.28467 26.6194 10.0171 25.887C10.7495 25.1545 10.7495 23.9651 10.0171 23.2327L4.77881 18.0002L10.0171 12.762C10.7495 12.0295 10.7495 10.8401 10.0171 10.1077Z" fill="#009CDE"/>
</g>
<defs>
<clipPath id="clip0_738_9348">
<path d="M0.25 3H37.75V33H0.25V3Z" fill="white"/>
</clipPath>
</defs>
</svg>
