<svg width="24" height="20" viewBox="0 0 24 20" fill="none" xmlns="http://www.w3.org/2000/svg">
<path d="M23 20H0V0H23V20Z" stroke="#E5E7EB"/>
<path d="M23.5 20H1V0H23.5V20Z" stroke="#E5E7EB"/>
<path d="M12.875 9.375V0.648438C12.875 0.296875 13.1484 0 13.5 0C18.332 0 22.25 3.91797 22.25 8.75C22.25 9.10156 21.9531 9.375 21.6016 9.375H12.875ZM2.25 10.625C2.25 5.88672 5.76953 1.96484 10.3359 1.33984C10.6953 1.28906 11 1.57812 11 1.94141V11.25L17.1133 17.3633C17.375 17.625 17.3555 18.0547 17.0547 18.2656C15.5234 19.3594 13.6484 20 11.625 20C6.44922 20 2.25 15.8047 2.25 10.625ZM22.8125 11.25C23.1758 11.25 23.4609 11.5547 23.4141 11.9141C23.1133 14.0977 22.0625 16.0391 20.5273 17.4727C20.293 17.6914 19.9258 17.6758 19.6992 17.4453L13.5 11.25H22.8125Z" fill="#009CDE"/>
</svg>
