<svg width="24" height="26" viewBox="0 0 24 26" fill="none" xmlns="http://www.w3.org/2000/svg">
<path d="M24 26H0V0H24V26Z" stroke="#E5E7EB"/>
<path d="M24 26H0V2H24V26Z" stroke="#E5E7EB"/>
<path d="M3 5C3 4.17031 2.32969 3.5 1.5 3.5C0.670312 3.5 0 4.17031 0 5V20.75C0 22.8219 1.67812 24.5 3.75 24.5H22.5C23.3297 24.5 24 23.8297 24 23C24 22.1703 23.3297 21.5 22.5 21.5H3.75C3.3375 21.5 3 21.1625 3 20.75V5ZM22.0594 9.05938C22.6453 8.47344 22.6453 7.52188 22.0594 6.93594C21.4734 6.35 20.5219 6.35 19.9359 6.93594L15 11.8766L12.3094 9.18594C11.7234 8.6 10.7719 8.6 10.1859 9.18594L4.93594 14.4359C4.35 15.0219 4.35 15.9734 4.93594 16.5594C5.52188 17.1453 6.47344 17.1453 7.05938 16.5594L11.25 12.3734L13.9406 15.0641C14.5266 15.65 15.4781 15.65 16.0641 15.0641L22.0641 9.06406L22.0594 9.05938Z" fill="#009CDE"/>
</svg>
