<svg width="18" height="32" viewBox="0 0 18 32" fill="none" xmlns="http://www.w3.org/2000/svg">
<path d="M18 32H0V0H18V32Z" stroke="#E5E7EB"/>
<g clip-path="url(#clip0_717_1560)">
<path d="M3 3C1.34531 3 0 4.34531 0 6V24C0 25.6547 1.34531 27 3 27H15C16.6547 27 18 25.6547 18 24V10.5H12C11.1703 10.5 10.5 9.82969 10.5 9V3H3ZM12 3V9H18L12 3ZM3.75 6H6.75C7.1625 6 7.5 6.3375 7.5 6.75C7.5 7.1625 7.1625 7.5 6.75 7.5H3.75C3.3375 7.5 3 7.1625 3 6.75C3 6.3375 3.3375 6 3.75 6ZM3.75 9H6.75C7.1625 9 7.5 9.3375 7.5 9.75C7.5 10.1625 7.1625 10.5 6.75 10.5H3.75C3.3375 10.5 3 10.1625 3 9.75C3 9.3375 3.3375 9 3.75 9ZM6.29062 20.8969C6.00469 21.8484 5.12812 22.5 4.13437 22.5H3.75C3.3375 22.5 3 22.1625 3 21.75C3 21.3375 3.3375 21 3.75 21H4.13437C4.46719 21 4.75781 20.7844 4.85156 20.4656L5.55 18.1453C5.70937 17.6156 6.19688 17.25 6.75 17.25C7.30312 17.25 7.79063 17.6109 7.95 18.1453L8.49375 19.9547C8.84062 19.6641 9.28125 19.5 9.75 19.5C10.4953 19.5 11.175 19.9219 11.5078 20.5875L11.7141 21H14.25C14.6625 21 15 21.3375 15 21.75C15 22.1625 14.6625 22.5 14.25 22.5H11.25C10.9641 22.5 10.7063 22.3406 10.5797 22.0875L10.1672 21.2578C10.0875 21.0984 9.92813 21 9.75469 21C9.58125 21 9.41719 21.0984 9.34219 21.2578L8.92969 22.0875C8.79375 22.3641 8.49844 22.5281 8.19375 22.5C7.88906 22.4719 7.62656 22.2609 7.54219 21.9703L6.75 19.3594L6.29062 20.8969Z" fill="white"/>
</g>
<defs>
<clipPath id="clip0_717_1560">
<path d="M0 3H18V27H0V3Z" fill="white"/>
</clipPath>
</defs>
</svg>
