<svg width="28" height="24" viewBox="0 0 28 24" fill="none" xmlns="http://www.w3.org/2000/svg">
<path d="M28 24H0V0H28V24Z" stroke="#E5E7EB"/>
<g clip-path="url(#clip0_737_4744)">
<path d="M15.8548 0.84375C15.6064 0.328125 15.0814 0 14.5048 0C13.9282 0 13.4079 0.328125 13.1548 0.84375L10.1407 7.04531L3.40948 8.03906C2.84698 8.12344 2.37823 8.51719 2.20479 9.05625C2.03136 9.59531 2.17198 10.1906 2.57511 10.5891L7.45948 15.4219L6.30636 22.2516C6.21261 22.8141 6.44698 23.3859 6.91104 23.7188C7.37511 24.0516 7.98917 24.0938 8.49542 23.8266L14.5095 20.6156L20.5235 23.8266C21.0298 24.0938 21.6439 24.0562 22.1079 23.7188C22.572 23.3813 22.8064 22.8141 22.7126 22.2516L21.5548 15.4219L26.4392 10.5891C26.8423 10.1906 26.9876 9.59531 26.8095 9.05625C26.6314 8.51719 26.1673 8.12344 25.6048 8.03906L18.8689 7.04531L15.8548 0.84375Z" fill="#009CDE"/>
</g>
<defs>
<clipPath id="clip0_737_4744">
<path d="M1 0H28V24H1V0Z" fill="white"/>
</clipPath>
</defs>
</svg>
