<svg width="14" height="15" viewBox="0 0 14 15" fill="none" xmlns="http://www.w3.org/2000/svg">
<path d="M14 15H0V0H14V15Z" stroke="#E5E7EB"/>
<path d="M14 15H0V1H14V15Z" stroke="#E5E7EB"/>
<path d="M8.39453 1.95163C8.08008 2.09108 7.875 2.40553 7.875 2.75006V4.50006H4.8125C2.15469 4.50006 0 6.65475 0 9.31256C0 12.4106 2.22852 13.7942 2.73984 14.0731C2.8082 14.1114 2.88477 14.1251 2.96133 14.1251C3.25938 14.1251 3.5 13.8817 3.5 13.5864C3.5 13.3813 3.38242 13.1926 3.23203 13.0532C2.975 12.8098 2.625 12.3313 2.625 11.5001C2.625 10.0508 3.80078 8.87506 5.25 8.87506H7.875V10.6251C7.875 10.9696 8.07734 11.284 8.39453 11.4235C8.71172 11.563 9.07812 11.5055 9.33516 11.2758L13.7102 7.33834C13.8934 7.17155 14 6.93639 14 6.68756C14 6.43873 13.8961 6.20358 13.7102 6.03678L9.33516 2.09928C9.07812 1.86686 8.70898 1.80944 8.39453 1.95163Z" fill="white"/>
</svg>
