<svg width="29" height="24" viewBox="0 0 29 24" fill="none" xmlns="http://www.w3.org/2000/svg">
<path d="M29 24H0V0H29V24Z" stroke="#E5E7EB"/>
<path d="M29 24H2V0H29V24Z" stroke="#E5E7EB"/>
<path d="M14.3984 0.243555C15.0969 -0.0798828 15.9031 -0.0798828 16.6016 0.243555L26.8484 4.97793C27.2469 5.16074 27.5 5.55918 27.5 5.9998C27.5 6.44043 27.2469 6.83887 26.8484 7.02168L16.6016 11.7561C15.9031 12.0795 15.0969 12.0795 14.3984 11.7561L4.15156 7.02168C3.75313 6.83418 3.5 6.43574 3.5 5.9998C3.5 5.56387 3.75313 5.16074 4.15156 4.97793L14.3984 0.243555ZM24.3547 9.82481L26.8484 10.9779C27.2469 11.1607 27.5 11.5592 27.5 11.9998C27.5 12.4404 27.2469 12.8389 26.8484 13.0217L16.6016 17.7561C15.9031 18.0795 15.0969 18.0795 14.3984 17.7561L4.15156 13.0217C3.75313 12.8342 3.5 12.4357 3.5 11.9998C3.5 11.5639 3.75313 11.1607 4.15156 10.9779L6.64531 9.82481L13.7703 13.1154C14.8672 13.6217 16.1328 13.6217 17.2297 13.1154L24.3547 9.82481ZM17.2297 19.1154L24.3547 15.8248L26.8484 16.9779C27.2469 17.1607 27.5 17.5592 27.5 17.9998C27.5 18.4404 27.2469 18.8389 26.8484 19.0217L16.6016 23.7561C15.9031 24.0795 15.0969 24.0795 14.3984 23.7561L4.15156 19.0217C3.75313 18.8342 3.5 18.4357 3.5 17.9998C3.5 17.5639 3.75313 17.1607 4.15156 16.9779L6.64531 15.8248L13.7703 19.1154C14.8672 19.6217 16.1328 19.6217 17.2297 19.1154Z" fill="#009CDE"/>
</svg>
