<svg width="12" height="24" viewBox="0 0 12 24" fill="none" xmlns="http://www.w3.org/2000/svg">
<path d="M12 24H0V0H12V24Z" stroke="#E5E7EB"/>
<g clip-path="url(#clip0_738_9246)">
<path d="M11.7066 9.70615C12.0973 9.31553 12.0973 8.68115 11.7066 8.29053C11.316 7.8999 10.6816 7.8999 10.291 8.29053L0.291016 18.2905C-0.0996094 18.6812 -0.0996094 19.3155 0.291016 19.7062C0.681641 20.0968 1.31602 20.0968 1.70664 19.7062L11.7066 9.70615ZM4.00039 9.9999C4.00039 9.46947 3.78968 8.96076 3.4146 8.58569C3.03953 8.21062 2.53082 7.9999 2.00039 7.9999C1.46996 7.9999 0.96125 8.21062 0.586177 8.58569C0.211104 8.96076 0.000390619 9.46947 0.000390619 9.9999C0.000390619 10.5303 0.211104 11.039 0.586177 11.4141C0.96125 11.7892 1.46996 11.9999 2.00039 11.9999C2.53082 11.9999 3.03953 11.7892 3.4146 11.4141C3.78968 11.039 4.00039 10.5303 4.00039 9.9999ZM12.0004 17.9999C12.0004 17.4695 11.7897 16.9608 11.4146 16.5857C11.0395 16.2106 10.5308 15.9999 10.0004 15.9999C9.46996 15.9999 8.96125 16.2106 8.58618 16.5857C8.21111 16.9608 8.00039 17.4695 8.00039 17.9999C8.00039 18.5303 8.21111 19.039 8.58618 19.4141C8.96125 19.7892 9.46996 19.9999 10.0004 19.9999C10.5308 19.9999 11.0395 19.7892 11.4146 19.4141C11.7897 19.039 12.0004 18.5303 12.0004 17.9999Z" fill="#009CDE"/>
</g>
<defs>
<clipPath id="clip0_738_9246">
<path d="M0 6H12V22H0V6Z" fill="white"/>
</clipPath>
</defs>
</svg>
