<svg width="32" height="44" viewBox="0 0 32 44" fill="none" xmlns="http://www.w3.org/2000/svg">
<path d="M32 44H0V0H32V44Z" stroke="#E5E7EB"/>
<g clip-path="url(#clip0_717_1603)">
<path d="M9 0C10.2445 0 11.25 1.00547 11.25 2.25V4.5H20.25V2.25C20.25 1.00547 21.2555 0 22.5 0C23.7445 0 24.75 1.00547 24.75 2.25V4.5H28.125C29.9883 4.5 31.5 6.01172 31.5 7.875V11.25H0V7.875C0 6.01172 1.51172 4.5 3.375 4.5H6.75V2.25C6.75 1.00547 7.75547 0 9 0ZM0 13.5H31.5V32.625C31.5 34.4883 29.9883 36 28.125 36H3.375C1.51172 36 0 34.4883 0 32.625V13.5ZM23.1328 21.4453C23.7938 20.7844 23.7938 19.7156 23.1328 19.0617C22.4719 18.4078 21.4031 18.4008 20.7492 19.0617L14.0695 25.7414L10.7648 22.4367C10.1039 21.7758 9.03516 21.7758 8.38125 22.4367C7.72734 23.0977 7.72031 24.1664 8.38125 24.8203L12.8812 29.3203C13.5422 29.9813 14.6109 29.9813 15.2648 29.3203L23.1328 21.4453Z" fill="#009CDE"/>
</g>
<defs>
<clipPath id="clip0_717_1603">
<path d="M0 0H31.5V36H0V0Z" fill="white"/>
</clipPath>
</defs>
</svg>
