<svg width="12" height="24" viewBox="0 0 12 24" fill="none" xmlns="http://www.w3.org/2000/svg">
<path d="M12 24H0V0H12V24Z" stroke="#E5E7EB"/>
<g clip-path="url(#clip0_738_9237)">
<path d="M2 4C0.896875 4 0 4.89688 0 6V18C0 19.1031 0.896875 20 2 20H10C11.1031 20 12 19.1031 12 18V9H8C7.44688 9 7 8.55312 7 8V4H2ZM8 4V8H12L8 4ZM2.5 6H4.5C4.775 6 5 6.225 5 6.5C5 6.775 4.775 7 4.5 7H2.5C2.225 7 2 6.775 2 6.5C2 6.225 2.225 6 2.5 6ZM2.5 8H4.5C4.775 8 5 8.225 5 8.5C5 8.775 4.775 9 4.5 9H2.5C2.225 9 2 8.775 2 8.5C2 8.225 2.225 8 2.5 8ZM4.19375 15.9312C4.00312 16.5656 3.41875 17 2.75625 17H2.5C2.225 17 2 16.775 2 16.5C2 16.225 2.225 16 2.5 16H2.75625C2.97812 16 3.17188 15.8562 3.23438 15.6438L3.7 14.0969C3.80625 13.7438 4.13125 13.5 4.5 13.5C4.86875 13.5 5.19375 13.7406 5.3 14.0969L5.6625 15.3031C5.89375 15.1094 6.1875 15 6.5 15C6.99687 15 7.45 15.2812 7.67188 15.725L7.80937 16H9.5C9.775 16 10 16.225 10 16.5C10 16.775 9.775 17 9.5 17H7.5C7.30937 17 7.1375 16.8938 7.05312 16.725L6.77812 16.1719C6.725 16.0656 6.61875 16 6.50313 16C6.3875 16 6.27813 16.0656 6.22813 16.1719L5.95312 16.725C5.8625 16.9094 5.66563 17.0188 5.4625 17C5.25938 16.9812 5.08437 16.8406 5.02812 16.6469L4.5 14.9062L4.19375 15.9312Z" fill="#009CDE"/>
</g>
<defs>
<clipPath id="clip0_738_9237">
<path d="M0 4H12V20H0V4Z" fill="white"/>
</clipPath>
</defs>
</svg>
