<svg width="16" height="24" viewBox="0 0 16 24" fill="none" xmlns="http://www.w3.org/2000/svg">
<path d="M16 24H0V0H16V24Z" stroke="#E5E7EB"/>
<g clip-path="url(#clip0_738_9240)">
<path d="M14 12C14 11.2121 13.8448 10.4319 13.5433 9.7039C13.2417 8.97595 12.7998 8.31451 12.2426 7.75736C11.6855 7.20021 11.0241 6.75825 10.2961 6.45672C9.56815 6.15519 8.78793 6 8 6C7.21207 6 6.43185 6.15519 5.7039 6.45672C4.97595 6.75825 4.31451 7.20021 3.75736 7.75736C3.20021 8.31451 2.75825 8.97595 2.45672 9.7039C2.15519 10.4319 2 11.2121 2 12C2 12.7879 2.15519 13.5681 2.45672 14.2961C2.75825 15.0241 3.20021 15.6855 3.75736 16.2426C4.31451 16.7998 4.97595 17.2417 5.7039 17.5433C6.43185 17.8448 7.21207 18 8 18C8.78793 18 9.56815 17.8448 10.2961 17.5433C11.0241 17.2417 11.6855 16.7998 12.2426 16.2426C12.7998 15.6855 13.2417 15.0241 13.5433 14.2961C13.8448 13.5681 14 12.7879 14 12ZM0 12C0 9.87827 0.842855 7.84344 2.34315 6.34315C3.84344 4.84285 5.87827 4 8 4C10.1217 4 12.1566 4.84285 13.6569 6.34315C15.1571 7.84344 16 9.87827 16 12C16 14.1217 15.1571 16.1566 13.6569 17.6569C12.1566 19.1571 10.1217 20 8 20C5.87827 20 3.84344 19.1571 2.34315 17.6569C0.842855 16.1566 0 14.1217 0 12ZM8 14.5C8.66304 14.5 9.29893 14.2366 9.76777 13.7678C10.2366 13.2989 10.5 12.663 10.5 12C10.5 11.337 10.2366 10.7011 9.76777 10.2322C9.29893 9.76339 8.66304 9.5 8 9.5C7.33696 9.5 6.70107 9.76339 6.23223 10.2322C5.76339 10.7011 5.5 11.337 5.5 12C5.5 12.663 5.76339 13.2989 6.23223 13.7678C6.70107 14.2366 7.33696 14.5 8 14.5ZM8 7.5C9.19347 7.5 10.3381 7.97411 11.182 8.81802C12.0259 9.66193 12.5 10.8065 12.5 12C12.5 13.1935 12.0259 14.3381 11.182 15.182C10.3381 16.0259 9.19347 16.5 8 16.5C6.80653 16.5 5.66193 16.0259 4.81802 15.182C3.97411 14.3381 3.5 13.1935 3.5 12C3.5 10.8065 3.97411 9.66193 4.81802 8.81802C5.66193 7.97411 6.80653 7.5 8 7.5ZM7 12C7 11.7348 7.10536 11.4804 7.29289 11.2929C7.48043 11.1054 7.73478 11 8 11C8.26522 11 8.51957 11.1054 8.70711 11.2929C8.89464 11.4804 9 11.7348 9 12C9 12.2652 8.89464 12.5196 8.70711 12.7071C8.51957 12.8946 8.26522 13 8 13C7.73478 13 7.48043 12.8946 7.29289 12.7071C7.10536 12.5196 7 12.2652 7 12Z" fill="#009CDE"/>
</g>
<defs>
<clipPath id="clip0_738_9240">
<path d="M0 4H16V20H0V4Z" fill="white"/>
</clipPath>
</defs>
</svg>
