<svg width="20" height="24" viewBox="0 0 20 24" fill="none" xmlns="http://www.w3.org/2000/svg">
<path d="M20 24H0V0H20V24Z" stroke="#E5E7EB"/>
<g clip-path="url(#clip0_738_9234)">
<path d="M3 8C3 6.93913 3.42143 5.92172 4.17157 5.17157C4.92172 4.42143 5.93913 4 7 4C8.06087 4 9.07828 4.42143 9.82843 5.17157C10.5786 5.92172 11 6.93913 11 8C11 9.06087 10.5786 10.0783 9.82843 10.8284C9.07828 11.5786 8.06087 12 7 12C5.93913 12 4.92172 11.5786 4.17157 10.8284C3.42143 10.0783 3 9.06087 3 8ZM0 19.0719C0 15.9937 2.49375 13.5 5.57188 13.5H8.42813C11.5063 13.5 14 15.9937 14 19.0719C14 19.5844 13.5844 20 13.0719 20H0.928125C0.415625 20 0 19.5844 0 19.0719ZM19.5312 9.53125L15.5312 13.5312C15.2375 13.825 14.7625 13.825 14.4719 13.5312L12.4719 11.5312C12.1781 11.2375 12.1781 10.7625 12.4719 10.4719C12.7656 10.1813 13.2406 10.1781 13.5312 10.4719L15 11.9406L18.4688 8.46875C18.7625 8.175 19.2375 8.175 19.5281 8.46875C19.8188 8.7625 19.8219 9.2375 19.5281 9.52812L19.5312 9.53125Z" fill="#009CDE"/>
</g>
<defs>
<clipPath id="clip0_738_9234">
<path d="M0 4H20V20H0V4Z" fill="white"/>
</clipPath>
</defs>
</svg>
