<svg width="23" height="30" viewBox="0 0 23 30" fill="none" xmlns="http://www.w3.org/2000/svg">
<path d="M23 30H0V0H23V30Z" stroke="#E5E7EB"/>
<g clip-path="url(#clip0_717_2151)">
<path d="M5.875 0C4.83789 0 4 0.837891 4 1.875V7.5H7.75V1.875C7.75 0.837891 6.91211 0 5.875 0ZM17.125 0C16.0879 0 15.25 0.837891 15.25 1.875V7.5H19V1.875C19 0.837891 18.1621 0 17.125 0ZM2.125 9.375C1.08789 9.375 0.25 10.2129 0.25 11.25C0.25 12.2871 1.08789 13.125 2.125 13.125V15C2.125 19.5352 5.34766 23.3203 9.625 24.1875V28.125C9.625 29.1621 10.4629 30 11.5 30C12.5371 30 13.375 29.1621 13.375 28.125V24.1875C17.6523 23.3203 20.875 19.5352 20.875 15V13.125C21.9121 13.125 22.75 12.2871 22.75 11.25C22.75 10.2129 21.9121 9.375 20.875 9.375H2.125Z" fill="#009CDE"/>
</g>
<defs>
<clipPath id="clip0_717_2151">
<path d="M0.25 0H22.75V30H0.25V0Z" fill="white"/>
</clipPath>
</defs>
</svg>
