<svg width="30" height="32" viewBox="0 0 30 32" fill="none" xmlns="http://www.w3.org/2000/svg">
<path d="M30 32H0V0H30V32Z" stroke="#E5E7EB"/>
<path d="M30 32H0V2H30V32Z" stroke="#E5E7EB"/>
<path d="M3.75 5.75C3.75 4.71289 2.91211 3.875 1.875 3.875C0.837891 3.875 0 4.71289 0 5.75V25.4375C0 28.0273 2.09766 30.125 4.6875 30.125H28.125C29.1621 30.125 30 29.2871 30 28.25C30 27.2129 29.1621 26.375 28.125 26.375H4.6875C4.17188 26.375 3.75 25.9531 3.75 25.4375V5.75ZM27.5742 10.8242C28.3066 10.0918 28.3066 8.90234 27.5742 8.16992C26.8418 7.4375 25.6523 7.4375 24.9199 8.16992L18.75 14.3457L15.3867 10.9824C14.6543 10.25 13.4648 10.25 12.7324 10.9824L6.16992 17.5449C5.4375 18.2773 5.4375 19.4668 6.16992 20.1992C6.90234 20.9316 8.0918 20.9316 8.82422 20.1992L14.0625 14.9668L17.4258 18.3301C18.1582 19.0625 19.3477 19.0625 20.0801 18.3301L27.5801 10.8301L27.5742 10.8242Z" fill="#009CDE"/>
</svg>
