<svg width="45" height="44" viewBox="0 0 45 44" fill="none" xmlns="http://www.w3.org/2000/svg">
<path d="M45 44H0V0H45V44Z" stroke="#E5E7EB"/>
<g clip-path="url(#clip0_717_1606)">
<path d="M14.625 24.75C22.7039 24.75 29.25 19.2094 29.25 12.375C29.25 5.54063 22.7039 0 14.625 0C6.54613 0 3.71093e-05 5.54063 3.71093e-05 12.375C3.71093e-05 15.0891 1.03363 17.5992 2.78441 19.6453C2.53832 20.3062 2.17269 20.8898 1.78597 21.382C1.44847 21.818 1.10394 22.1555 0.850818 22.3875C0.724256 22.5 0.618787 22.5914 0.548475 22.6477C0.513318 22.6758 0.485193 22.6969 0.471131 22.7039L0.457068 22.718C0.0703496 23.0063 -0.0984004 23.5125 0.0562871 23.9695C0.210975 24.4266 0.639881 24.75 1.12504 24.75C2.65785 24.75 4.20472 24.3563 5.49144 23.8711C6.13832 23.625 6.74301 23.3508 7.27035 23.0695C9.42894 24.1383 11.9391 24.75 14.625 24.75ZM31.5 12.375C31.5 20.2711 24.5321 26.2195 16.2774 26.9297C17.986 32.1609 23.6532 36 30.375 36C33.061 36 35.5711 35.3883 37.7368 34.3195C38.2641 34.6008 38.8618 34.875 39.5086 35.1211C40.7953 35.6063 42.3422 36 43.875 36C44.3602 36 44.7961 35.6836 44.9438 35.2195C45.0914 34.7555 44.9297 34.2492 44.536 33.9609L44.5219 33.9469C44.5079 33.9328 44.4797 33.9188 44.4446 33.8906C44.3743 33.8344 44.2688 33.75 44.1422 33.6305C43.8891 33.3984 43.5446 33.0609 43.2071 32.625C42.8203 32.1328 42.4547 31.5422 42.2086 30.8883C43.9594 28.8492 44.993 26.3391 44.993 23.618C44.993 17.093 39.0235 11.7422 31.4508 11.2781C31.4789 11.6367 31.493 12.0023 31.493 12.368L31.5 12.375Z" fill="#009CDE"/>
</g>
<defs>
<clipPath id="clip0_717_1606">
<path d="M0 0H45V36H0V0Z" fill="white"/>
</clipPath>
</defs>
</svg>
