<svg width="22" height="24" viewBox="0 0 22 24" fill="none" xmlns="http://www.w3.org/2000/svg">
<path d="M22 24H0V0H22V24Z" stroke="#E5E7EB"/>
<g clip-path="url(#clip0_737_4740)">
<path d="M17.3781 2.09056C17.6547 1.44837 17.4484 0.698373 16.8812 0.285873C16.3141 -0.126627 15.5406 -0.0891267 15.0109 0.370248L3.01093 10.8702C2.54218 11.2827 2.37343 11.9437 2.59374 12.5249C2.81405 13.1062 3.37655 13.4999 3.99999 13.4999H9.22655L5.62186 21.9093C5.3453 22.5515 5.55155 23.3015 6.11874 23.714C6.68593 24.1265 7.45937 24.089 7.98905 23.6296L19.9891 13.1296C20.4578 12.7171 20.6266 12.0562 20.4062 11.4749C20.1859 10.8937 19.6281 10.5046 19 10.5046H13.7734L17.3781 2.09056Z" fill="#009CDE"/>
</g>
<defs>
<clipPath id="clip0_737_4740">
<path d="M1 0H22V24H1V0Z" fill="white"/>
</clipPath>
</defs>
</svg>
