<svg width="23" height="21" viewBox="0 0 23 21" fill="none" xmlns="http://www.w3.org/2000/svg">
<path d="M23 21H0V0H23V21Z" stroke="#E5E7EB"/>
<g clip-path="url(#clip0_717_2451)">
<path d="M2.5 2.25C1.12109 2.25 0 3.37109 0 4.75V6H22.5V4.75C22.5 3.37109 21.3789 2.25 20 2.25H2.5ZM22.5 9.75H0V17.25C0 18.6289 1.12109 19.75 2.5 19.75H20C21.3789 19.75 22.5 18.6289 22.5 17.25V9.75ZM4.375 14.75H6.875C7.21875 14.75 7.5 15.0312 7.5 15.375C7.5 15.7188 7.21875 16 6.875 16H4.375C4.03125 16 3.75 15.7188 3.75 15.375C3.75 15.0312 4.03125 14.75 4.375 14.75ZM8.75 15.375C8.75 15.0312 9.03125 14.75 9.375 14.75H14.375C14.7188 14.75 15 15.0312 15 15.375C15 15.7188 14.7188 16 14.375 16H9.375C9.03125 16 8.75 15.7188 8.75 15.375Z" fill="#009CDE"/>
</g>
<defs>
<clipPath id="clip0_717_2451">
<path d="M0 1H22.5V21H0V1Z" fill="white"/>
</clipPath>
</defs>
</svg>
