<svg width="30" height="27" viewBox="0 0 30 27" fill="none" xmlns="http://www.w3.org/2000/svg">
<path d="M30 27H0V0H30V27Z" stroke="#E5E7EB"/>
<path d="M30 27H0V3H30V27Z" stroke="#E5E7EB"/>
<path d="M15.1594 6.99375L10.6219 10.6687C9.86719 11.2781 9.72188 12.375 10.2938 13.1578C10.8984 13.9922 12.075 14.1562 12.8859 13.5234L17.5406 9.90469C17.8688 9.65156 18.3375 9.70781 18.5953 10.0359C18.8531 10.3641 18.7922 10.8328 18.4641 11.0906L17.4844 11.85L24 17.85V9H23.9672L23.7844 8.88281L20.3812 6.70312C19.6641 6.24375 18.825 6 17.9719 6C16.95 6 15.9562 6.35156 15.1594 6.99375ZM16.2281 12.825L13.8047 14.7094C12.3281 15.8625 10.1859 15.5625 9.07969 14.0437C8.03906 12.6141 8.30156 10.6172 9.675 9.50625L13.575 6.35156C13.0312 6.12187 12.4453 6.00469 11.85 6.00469C10.9688 6 10.1109 6.2625 9.375 6.75L6 9V19.5H7.32187L11.6063 23.4094C12.525 24.2484 13.9453 24.1828 14.7844 23.2641C15.0422 22.9781 15.2156 22.6453 15.3047 22.2984L16.1016 23.0297C17.0156 23.8687 18.4406 23.8078 19.2797 22.8937C19.4906 22.6641 19.6453 22.3969 19.7438 22.1203C20.6531 22.7297 21.8906 22.6031 22.6547 21.7687C23.4937 20.8547 23.4328 19.4297 22.5187 18.5906L16.2281 12.825ZM0.75 9C0.3375 9 0 9.3375 0 9.75V19.5C0 20.3297 0.670312 21 1.5 21H3C3.82969 21 4.5 20.3297 4.5 19.5V9H0.75ZM2.25 18C2.44891 18 2.63968 18.079 2.78033 18.2197C2.92098 18.3603 3 18.5511 3 18.75C3 18.9489 2.92098 19.1397 2.78033 19.2803C2.63968 19.421 2.44891 19.5 2.25 19.5C2.05109 19.5 1.86032 19.421 1.71967 19.2803C1.57902 19.1397 1.5 18.9489 1.5 18.75C1.5 18.5511 1.57902 18.3603 1.71967 18.2197C1.86032 18.079 2.05109 18 2.25 18ZM25.5 9V19.5C25.5 20.3297 26.1703 21 27 21H28.5C29.3297 21 30 20.3297 30 19.5V9.75C30 9.3375 29.6625 9 29.25 9H25.5ZM27 18.75C27 18.5511 27.079 18.3603 27.2197 18.2197C27.3603 18.079 27.5511 18 27.75 18C27.9489 18 28.1397 18.079 28.2803 18.2197C28.421 18.3603 28.5 18.5511 28.5 18.75C28.5 18.9489 28.421 19.1397 28.2803 19.2803C28.1397 19.421 27.9489 19.5 27.75 19.5C27.5511 19.5 27.3603 19.421 27.2197 19.2803C27.079 19.1397 27 18.9489 27 18.75Z" fill="#009CDE"/>
</svg>
