<svg width="29" height="30" viewBox="0 0 29 30" fill="none" xmlns="http://www.w3.org/2000/svg">
<path d="M29 30H0V0H29V30Z" stroke="#E5E7EB"/>
<g clip-path="url(#clip0_717_2145)">
<path d="M28.7969 15.3398C28.7969 23.6309 23.1191 29.5312 14.7344 29.5312C6.69531 29.5312 0.203125 23.0391 0.203125 15C0.203125 6.96094 6.69531 0.46875 14.7344 0.46875C18.6484 0.46875 21.9414 1.9043 24.4785 4.27148L20.5234 8.07422C15.3496 3.08203 5.72852 6.83203 5.72852 15C5.72852 20.0684 9.77734 24.1758 14.7344 24.1758C20.4883 24.1758 22.6445 20.0508 22.9844 17.9121H14.7344V12.9141H28.5684C28.7031 13.6582 28.7969 14.373 28.7969 15.3398Z" fill="#009CDE"/>
</g>
<defs>
<clipPath id="clip0_717_2145">
<path d="M0.203125 0H28.7969V30H0.203125V0Z" fill="white"/>
</clipPath>
</defs>
</svg>
