<svg width="30" height="36" viewBox="0 0 30 36" fill="none" xmlns="http://www.w3.org/2000/svg">
<path d="M30 36H0V0H30V36Z" stroke="#E5E7EB"/>
<g clip-path="url(#clip0_738_9345)">
<path d="M15 33C18.9782 33 22.7936 31.4196 25.6066 28.6066C28.4196 25.7936 30 21.9782 30 18C30 14.0218 28.4196 10.2064 25.6066 7.3934C22.7936 4.58035 18.9782 3 15 3C11.0218 3 7.20644 4.58035 4.3934 7.3934C1.58035 10.2064 0 14.0218 0 18C0 21.9782 1.58035 25.7936 4.3934 28.6066C7.20644 31.4196 11.0218 33 15 33ZM9.94922 12.6855C10.4121 11.3789 11.6543 10.5 13.043 10.5H16.459C18.5039 10.5 20.1562 12.1582 20.1562 14.1973C20.1562 15.5215 19.4473 16.7461 18.2988 17.4082L16.4062 18.4922C16.3945 19.2539 15.7676 19.875 15 19.875C14.2207 19.875 13.5938 19.248 13.5938 18.4688V17.6777C13.5938 17.1738 13.8633 16.7109 14.3027 16.459L16.8984 14.9707C17.1738 14.8125 17.3438 14.5195 17.3438 14.2031C17.3438 13.7109 16.9453 13.3184 16.459 13.3184H13.043C12.8438 13.3184 12.668 13.4414 12.6035 13.6289L12.5801 13.6992C12.3223 14.4316 11.5137 14.8125 10.7871 14.5547C10.0605 14.2969 9.67383 13.4883 9.93164 12.7617L9.95508 12.6914L9.94922 12.6855ZM13.125 23.625C13.125 23.1277 13.3225 22.6508 13.6742 22.2992C14.0258 21.9475 14.5027 21.75 15 21.75C15.4973 21.75 15.9742 21.9475 16.3258 22.2992C16.6775 22.6508 16.875 23.1277 16.875 23.625C16.875 24.1223 16.6775 24.5992 16.3258 24.9508C15.9742 25.3025 15.4973 25.5 15 25.5C14.5027 25.5 14.0258 25.3025 13.6742 24.9508C13.3225 24.5992 13.125 24.1223 13.125 23.625Z" fill="#009CDE"/>
</g>
<defs>
<clipPath id="clip0_738_9345">
<path d="M0 3H30V33H0V3Z" fill="white"/>
</clipPath>
</defs>
</svg>
