<svg width="30" height="30" viewBox="0 0 30 30" fill="none" xmlns="http://www.w3.org/2000/svg">
<path d="M30 30H0V0H30V30Z" stroke="#E5E7EB"/>
<path d="M30 30H0V0H30V30Z" stroke="#E5E7EB"/>
<path d="M15.668 12.3984C14.1973 13.7871 13.2773 15.7559 13.2773 17.9414C13.2773 19.6582 13.8457 21.2402 14.8008 22.5117L11.9004 25.4297C11.6426 25.3359 11.3672 25.2832 11.0801 25.2832C10.4473 25.2832 9.85547 25.5293 9.41016 25.9746C8.96484 26.4199 8.71875 27.0176 8.71875 27.6504C8.71875 28.2832 8.96484 28.875 9.41016 29.3203C9.85547 29.7656 10.4531 30 11.0801 30C11.7129 30 12.3047 29.7715 12.7559 29.3203C13.2012 28.875 13.4473 28.2773 13.4473 27.6504C13.4473 27.4043 13.4121 27.1699 13.3359 26.9414L16.2656 24C17.5547 24.9902 19.1602 25.5762 20.9121 25.5762C25.125 25.5762 28.5293 22.1602 28.5293 17.9473C28.5293 14.127 25.7344 10.9629 22.0723 10.4062V6.79688C23.0977 6.36328 23.7246 5.40234 23.7246 4.2832C23.7246 2.75391 22.5 1.47656 20.9707 1.47656C19.4414 1.47656 18.2344 2.75391 18.2344 4.2832C18.2344 5.40234 18.8613 6.36328 19.8867 6.79688V10.3828C18.9961 10.5059 18.1523 10.7754 17.3848 11.1797C15.7676 9.95508 10.5 6.1582 7.48828 3.86719C7.55859 3.60938 7.60547 3.33984 7.60547 3.05859C7.60547 1.37109 6.22852 0 4.53516 0C2.84766 0 1.47656 1.37109 1.47656 3.05859C1.47656 4.75195 2.84766 6.12305 4.53516 6.12305C5.10938 6.12305 5.64258 5.95312 6.10547 5.67773L15.668 12.3984ZM20.9121 21.9844C18.6797 21.9844 16.8691 20.1738 16.8691 17.9414C16.8691 15.709 18.6797 13.8984 20.9121 13.8984C23.1445 13.8984 24.9551 15.709 24.9551 17.9414C24.9551 20.1738 23.1445 21.9844 20.9121 21.9844Z" fill="#009CDE"/>
</svg>
