<svg width="30" height="24" viewBox="0 0 30 24" fill="none" xmlns="http://www.w3.org/2000/svg">
<path d="M30 24H0V0H30V24Z" stroke="#E5E7EB"/>
<g clip-path="url(#clip0_717_2253)">
<path d="M1.81853 0.239082C1.33103 -0.145293 0.623213 -0.0562306 0.238838 0.431269C-0.145537 0.918769 -0.0564748 1.62658 0.431025 2.01096L28.181 23.761C28.6685 24.1453 29.3763 24.0563 29.7607 23.5688C30.1451 23.0813 30.056 22.3735 29.5685 21.9891L20.6529 15H29.0013C29.5545 15 29.9998 14.55 29.9998 14.0016C29.9998 11.2406 27.7591 9.00002 24.9982 9.00002H23.0013C22.256 9.00002 21.5482 9.16408 20.9107 9.45471C20.9717 9.79221 20.9998 10.1438 20.9998 10.5C20.9998 11.9156 20.5076 13.2188 19.6873 14.2453L18.506 13.3219C19.1295 12.5485 19.4998 11.5688 19.4998 10.5C19.4998 8.01564 17.4841 6.00002 14.9998 6.00002C13.542 6.00002 12.2482 6.69377 11.4232 7.76721L9.52009 6.27658C10.1295 5.61096 10.4998 4.72502 10.4998 3.75002C10.4998 1.67814 8.82165 1.93428e-05 6.74977 1.93428e-05C5.45134 1.93428e-05 4.30759 0.660957 3.63259 1.66408L1.81853 0.239082ZM5.00134 9.00002C2.2404 9.00002 -0.000224798 11.2406 -0.000224798 14.0016C-0.000224798 14.55 0.449775 15 0.998213 15H11.0013C11.0107 15 11.0201 15 11.0341 15C10.0685 14.1469 9.38415 12.9938 9.12165 11.6813L5.70915 9.00002H5.00134ZM12.2482 16.5C8.79821 16.5 5.99977 19.2985 5.99977 22.7485C5.99977 23.4375 6.55759 24 7.25134 24H22.7482C23.2404 24 23.6623 23.7188 23.8685 23.3063L15.2295 16.5H12.2482ZM23.9998 7.50002C24.9943 7.50002 25.9482 7.10493 26.6514 6.40167C27.3547 5.69841 27.7498 4.74458 27.7498 3.75002C27.7498 2.75546 27.3547 1.80163 26.6514 1.09837C25.9482 0.395107 24.9943 1.93428e-05 23.9998 1.93428e-05C23.0052 1.93428e-05 22.0514 0.395107 21.3481 1.09837C20.6449 1.80163 20.2498 2.75546 20.2498 3.75002C20.2498 4.74458 20.6449 5.69841 21.3481 6.40167C22.0514 7.10493 23.0052 7.50002 23.9998 7.50002Z" fill="#009CDE"/>
</g>
<defs>
<clipPath id="clip0_717_2253">
<path d="M0 0H30V24H0V0Z" fill="white"/>
</clipPath>
</defs>
</svg>
