<svg width="14" height="24" viewBox="0 0 14 24" fill="none" xmlns="http://www.w3.org/2000/svg">
<path d="M14 24H0V0H14V24Z" stroke="#E5E7EB"/>
<g clip-path="url(#clip0_749_10273)">
<path d="M7.00352 9.40635C5.01602 9.40635 3.41289 11.0095 3.41289 12.997C3.41289 14.9845 5.01602 16.5876 7.00352 16.5876C8.99102 16.5876 10.5941 14.9845 10.5941 12.997C10.5941 11.0095 8.99102 9.40635 7.00352 9.40635ZM7.00352 15.3313C5.71914 15.3313 4.66914 14.2845 4.66914 12.997C4.66914 11.7095 5.71602 10.6626 7.00352 10.6626C8.29102 10.6626 9.33789 11.7095 9.33789 12.997C9.33789 14.2845 8.28789 15.3313 7.00352 15.3313ZM11.5785 9.25947C11.5785 9.7251 11.2035 10.097 10.741 10.097C10.2754 10.097 9.90352 9.72197 9.90352 9.25947C9.90352 8.79697 10.2785 8.42197 10.741 8.42197C11.2035 8.42197 11.5785 8.79697 11.5785 9.25947ZM13.9566 10.1095C13.9035 8.9876 13.6473 7.99385 12.8254 7.1751C12.0066 6.35635 11.0129 6.1001 9.89102 6.04385C8.73477 5.97822 5.26914 5.97822 4.11289 6.04385C2.99414 6.09697 2.00039 6.35322 1.17852 7.17197C0.356641 7.99072 0.103516 8.98447 0.0472656 10.1063C-0.0183594 11.2626 -0.0183594 14.7282 0.0472656 15.8845C0.100391 17.0063 0.356641 18.0001 1.17852 18.8188C2.00039 19.6376 2.99102 19.8938 4.11289 19.9501C5.26914 20.0157 8.73477 20.0157 9.89102 19.9501C11.0129 19.897 12.0066 19.6407 12.8254 18.8188C13.6441 18.0001 13.9004 17.0063 13.9566 15.8845C14.0223 14.7282 14.0223 11.2657 13.9566 10.1095ZM12.4629 17.1251C12.2191 17.7376 11.7473 18.2095 11.1316 18.4563C10.2098 18.822 8.02227 18.7376 7.00352 18.7376C5.98477 18.7376 3.79414 18.8188 2.87539 18.4563C2.26289 18.2126 1.79102 17.7407 1.54414 17.1251C1.17852 16.2032 1.26289 14.0157 1.26289 12.997C1.26289 11.9782 1.18164 9.7876 1.54414 8.86885C1.78789 8.25635 2.25977 7.78447 2.87539 7.5376C3.79727 7.17197 5.98477 7.25635 7.00352 7.25635C8.02227 7.25635 10.2129 7.1751 11.1316 7.5376C11.7441 7.78135 12.216 8.25322 12.4629 8.86885C12.8285 9.79072 12.7441 11.9782 12.7441 12.997C12.7441 14.0157 12.8285 16.2063 12.4629 17.1251Z" fill="black"/>
</g>
<defs>
<clipPath id="clip0_749_10273">
<path d="M0 5H14V21H0V5Z" fill="white"/>
</clipPath>
</defs>
</svg>
