<svg width="18" height="18" viewBox="0 0 18 18" fill="none" xmlns="http://www.w3.org/2000/svg">
<path d="M18 18H0V0H18V18Z" stroke="#E5E7EB"/>
<g clip-path="url(#clip0_717_263)">
<path d="M5.50544 13.5316L4.41911 12.4453C4.12029 12.1465 4.01482 11.7141 4.14841 11.3133C4.25388 11.0004 4.3945 10.5926 4.56325 10.125H0.843723C0.541379 10.125 0.260129 9.96328 0.108957 9.6996C-0.0422144 9.43593 -0.0386988 9.1125 0.115989 8.85234L1.96169 5.74101C2.41872 4.97109 3.24489 4.5 4.13786 4.5H7.03122C7.1156 4.35937 7.19997 4.22929 7.28435 4.10273C10.1636 -0.144145 14.4527 -0.28477 17.0121 0.186324C17.4199 0.260152 17.7363 0.580074 17.8136 0.987886C18.2847 3.55078 18.1406 7.83632 13.8972 10.7156C13.7742 10.8 13.6406 10.8844 13.5 10.9687V13.8621C13.5 14.7551 13.0289 15.5848 12.259 16.0383L9.14763 17.884C8.88747 18.0387 8.56404 18.0422 8.30036 17.891C8.03669 17.7398 7.87497 17.4621 7.87497 17.1562V13.3875C7.37927 13.5598 6.94685 13.7004 6.6199 13.8059C6.22615 13.9324 5.79724 13.8234 5.50193 13.5316H5.50544ZM13.5 5.90625C13.8729 5.90625 14.2306 5.75809 14.4943 5.49436C14.7581 5.23064 14.9062 4.87296 14.9062 4.5C14.9062 4.12704 14.7581 3.76935 14.4943 3.50563C14.2306 3.2419 13.8729 3.09375 13.5 3.09375C13.127 3.09375 12.7693 3.2419 12.5056 3.50563C12.2419 3.76935 12.0937 4.12704 12.0937 4.5C12.0937 4.87296 12.2419 5.23064 12.5056 5.49436C12.7693 5.75809 13.127 5.90625 13.5 5.90625Z" fill="white"/>
</g>
<defs>
<clipPath id="clip0_717_263">
<path d="M0 0H18V18H0V0Z" fill="white"/>
</clipPath>
</defs>
</svg>
