<svg width="14" height="24" viewBox="0 0 14 24" fill="none" xmlns="http://www.w3.org/2000/svg">
<path d="M14 24H0V0H14V24Z" stroke="#E5E7EB"/>
<path d="M14 21H0V5H14V21Z" stroke="#E5E7EB"/>
<path d="M13 6H0.996875C0.446875 6 0 6.45313 0 7.00938V18.9906C0 19.5469 0.446875 20 0.996875 20H13C13.55 20 14 19.5469 14 18.9906V7.00938C14 6.45313 13.55 6 13 6ZM4.23125 18H2.15625V11.3187H4.23438V18H4.23125ZM3.19375 10.4062C2.52812 10.4062 1.99063 9.86562 1.99063 9.20312C1.99063 8.54063 2.52812 8 3.19375 8C3.85625 8 4.39687 8.54063 4.39687 9.20312C4.39687 9.86875 3.85938 10.4062 3.19375 10.4062ZM12.0094 18H9.93437V14.75C9.93437 13.975 9.91875 12.9781 8.85625 12.9781C7.775 12.9781 7.60938 13.8219 7.60938 14.6938V18H5.53438V11.3187H7.525V12.2312H7.55312C7.83125 11.7062 8.50938 11.1531 9.51875 11.1531C11.6187 11.1531 12.0094 12.5375 12.0094 14.3375V18Z" fill="black"/>
</svg>
