<svg width="14" height="16" viewBox="0 0 14 16" fill="none" xmlns="http://www.w3.org/2000/svg">
<path d="M14 16H0V0H14V16Z" stroke="#E5E7EB"/>
<g clip-path="url(#clip0_738_9655)">
<path d="M0 7C0 6.17266 0.672656 5.5 1.5 5.5H7.5C8.32734 5.5 9 6.17266 9 7V13C9 13.8273 8.32734 14.5 7.5 14.5H1.5C0.672656 14.5 0 13.8273 0 13V7ZM13.1039 6.33906C13.3477 6.47031 13.5 6.72344 13.5 7V13C13.5 13.2766 13.3477 13.5297 13.1039 13.6609C12.8602 13.7922 12.5648 13.7781 12.3328 13.6234L10.0828 12.1234L9.75 11.9008V11.5V8.5V8.09922L10.0828 7.87656L12.3328 6.37656C12.5625 6.22422 12.8578 6.20781 13.1039 6.33906Z" fill="white"/>
</g>
<defs>
<clipPath id="clip0_738_9655">
<path d="M0 4H13.5V16H0V4Z" fill="white"/>
</clipPath>
</defs>
</svg>
