<svg width="34" height="36" viewBox="0 0 34 36" fill="none" xmlns="http://www.w3.org/2000/svg">
<path d="M34 36H0V0H34V36Z" stroke="#E5E7EB"/>
<g clip-path="url(#clip0_738_9351)">
<path d="M14.75 32.627C15.3828 32.8496 16.0625 32.3867 16.0625 31.7187V9.60547C16.0625 9.35937 15.9688 9.11328 15.7695 8.96094C14.6211 8.04687 11.9844 6.875 8.5625 6.875C5.60352 6.875 2.83789 7.6543 1.18555 8.28711C0.523438 8.54492 0.125 9.20117 0.125 9.91016V31.6074C0.125 32.3047 0.875 32.791 1.53711 32.5742C3.38281 31.959 6.30664 31.25 8.5625 31.25C10.5488 31.25 13.1914 32.0703 14.75 32.627ZM19.25 32.627C20.8086 32.0703 23.4512 31.25 25.4375 31.25C27.6934 31.25 30.6172 31.959 32.4629 32.5742C33.125 32.7969 33.875 32.3047 33.875 31.6074V9.91016C33.875 9.20117 33.4766 8.54492 32.8145 8.29297C31.1621 7.6543 28.3965 6.875 25.4375 6.875C22.0156 6.875 19.3789 8.04687 18.2305 8.96094C18.0371 9.11328 17.9375 9.35937 17.9375 9.60547V31.7187C17.9375 32.3867 18.623 32.8496 19.25 32.627Z" fill="#009CDE"/>
</g>
<defs>
<clipPath id="clip0_738_9351">
<path d="M0.125 5H33.875V35H0.125V5Z" fill="white"/>
</clipPath>
</defs>
</svg>
