<svg width="11" height="14" viewBox="0 0 11 14" fill="none" xmlns="http://www.w3.org/2000/svg">
<g clip-path="url(#clip0_717_2525)">
<path d="M1.75 0C0.784766 0 0 0.784766 0 1.75V12.25C0 13.2152 0.784766 14 1.75 14H8.75C9.71523 14 10.5 13.2152 10.5 12.25V4.375H7C6.51602 4.375 6.125 3.98398 6.125 3.5V0H1.75ZM7 0V3.5H10.5L7 0ZM3.71875 6.5625H5.57812C6.72656 6.5625 7.65625 7.49219 7.65625 8.64062C7.65625 9.78906 6.72656 10.7188 5.57812 10.7188H4.375V11.5938C4.375 11.9574 4.08242 12.25 3.71875 12.25C3.35508 12.25 3.0625 11.9574 3.0625 11.5938V10.0625V7.21875C3.0625 6.85508 3.35508 6.5625 3.71875 6.5625ZM5.57812 9.40625C6.00195 9.40625 6.34375 9.06445 6.34375 8.64062C6.34375 8.2168 6.00195 7.875 5.57812 7.875H4.375V9.40625H5.57812Z" fill="#009CDE"/>
</g>
<defs>
<clipPath id="clip0_717_2525">
<path d="M0 0H10.5V14H0V0Z" fill="white"/>
</clipPath>
</defs>
</svg>
