<svg width="24" height="26" viewBox="0 0 24 26" fill="none" xmlns="http://www.w3.org/2000/svg">
<path d="M24 26H0V0H24V26Z" stroke="#E5E7EB"/>
<g clip-path="url(#clip0_717_2235)">
<path d="M12.0002 3.5C12.6658 3.5 13.2799 3.85156 13.6174 4.42812L23.7424 21.6781C24.0846 22.2594 24.0846 22.9766 23.7518 23.5578C23.419 24.1391 22.7955 24.5 22.1252 24.5H1.87522C1.20491 24.5 0.581473 24.1391 0.24866 23.5578C-0.084152 22.9766 -0.0794645 22.2547 0.258035 21.6781L10.383 4.42812C10.7205 3.85156 11.3346 3.5 12.0002 3.5ZM12.0002 9.5C11.3768 9.5 10.8752 10.0016 10.8752 10.625V15.875C10.8752 16.4984 11.3768 17 12.0002 17C12.6237 17 13.1252 16.4984 13.1252 15.875V10.625C13.1252 10.0016 12.6237 9.5 12.0002 9.5ZM13.5002 20C13.5002 19.6022 13.3422 19.2206 13.0609 18.9393C12.7796 18.658 12.398 18.5 12.0002 18.5C11.6024 18.5 11.2209 18.658 10.9396 18.9393C10.6583 19.2206 10.5002 19.6022 10.5002 20C10.5002 20.3978 10.6583 20.7794 10.9396 21.0607C11.2209 21.342 11.6024 21.5 12.0002 21.5C12.398 21.5 12.7796 21.342 13.0609 21.0607C13.3422 20.7794 13.5002 20.3978 13.5002 20Z" fill="#009CDE"/>
</g>
<defs>
<clipPath id="clip0_717_2235">
<path d="M0 2H24V26H0V2Z" fill="white"/>
</clipPath>
</defs>
</svg>
