<svg width="11" height="14" viewBox="0 0 11 14" fill="none" xmlns="http://www.w3.org/2000/svg">
<path d="M11 14H0V0H11V14Z" stroke="#E5E7EB"/>
<g clip-path="url(#clip0_717_2292)">
<path d="M1.75 0C0.784766 0 0 0.784766 0 1.75V12.25C0 13.2152 0.784766 14 1.75 14H8.75C9.71523 14 10.5 13.2152 10.5 12.25V4.375H7C6.51602 4.375 6.125 3.98398 6.125 3.5V0H1.75ZM7 0V3.5H10.5L7 0ZM4.25742 6.84141L5.25 8.26055L6.24258 6.84141C6.45039 6.54336 6.86055 6.47227 7.15586 6.68008C7.45117 6.88789 7.525 7.29805 7.31719 7.59336L6.05117 9.40625L7.31992 11.2164C7.52773 11.5145 7.45664 11.9219 7.15859 12.1297C6.86055 12.3375 6.45312 12.2664 6.24531 11.9684L5.25 10.5492L4.25742 11.9684C4.04961 12.2664 3.63945 12.3375 3.34414 12.1297C3.04883 11.9219 2.975 11.5117 3.18281 11.2164L4.44883 9.40625L3.18008 7.59609C2.97227 7.29805 3.04336 6.89062 3.34141 6.68281C3.63945 6.475 4.04688 6.54609 4.25469 6.84414L4.25742 6.84141Z" fill="#009CDE"/>
</g>
<defs>
<clipPath id="clip0_717_2292">
<path d="M0 0H10.5V14H0V0Z" fill="white"/>
</clipPath>
</defs>
</svg>
