<svg width="30" height="32" viewBox="0 0 30 32" fill="none" xmlns="http://www.w3.org/2000/svg">
<path d="M30 32H0V0H30V32Z" stroke="#E5E7EB"/>
<g clip-path="url(#clip0_749_10180)">
<path d="M9.74954 19.5C15.1355 19.5 19.4995 15.8062 19.4995 11.25C19.4995 6.69375 15.1355 3 9.74954 3C4.3636 3 -0.000463542 6.69375 -0.000463542 11.25C-0.000463542 13.0594 0.688599 14.7328 1.85579 16.0969C1.69172 16.5375 1.44797 16.9266 1.19016 17.2547C0.965161 17.5453 0.735474 17.7703 0.566724 17.925C0.482349 18 0.412036 18.0609 0.365161 18.0984C0.341724 18.1172 0.322974 18.1312 0.313599 18.1359L0.304224 18.1453C0.0464115 18.3375 -0.0660885 18.675 0.0370365 18.9797C0.140161 19.2844 0.426099 19.5 0.749536 19.5C1.77141 19.5 2.80266 19.2375 3.66047 18.9141C4.09172 18.75 4.49485 18.5672 4.84641 18.3797C6.28547 19.0922 7.95891 19.5 9.74954 19.5ZM20.9995 11.25C20.9995 16.5141 16.3542 20.4797 10.8511 20.9531C11.9902 24.4406 15.7683 27 20.2495 27C22.0402 27 23.7136 26.5922 25.1573 25.8797C25.5089 26.0672 25.9073 26.25 26.3386 26.4141C27.1964 26.7375 28.2277 27 29.2495 27C29.573 27 29.8636 26.7891 29.962 26.4797C30.0605 26.1703 29.9527 25.8328 29.6902 25.6406L29.6808 25.6312C29.6714 25.6219 29.6527 25.6125 29.6292 25.5938C29.5823 25.5562 29.512 25.5 29.4277 25.4203C29.2589 25.2656 29.0292 25.0406 28.8042 24.75C28.5464 24.4219 28.3027 24.0281 28.1386 23.5922C29.3058 22.2328 29.9949 20.5594 29.9949 18.7453C29.9949 14.3953 26.0152 10.8281 20.9667 10.5187C20.9855 10.7578 20.9949 11.0016 20.9949 11.2453L20.9995 11.25Z" fill="#009CDE"/>
</g>
<defs>
<clipPath id="clip0_749_10180">
<path d="M0 3H30V27H0V3Z" fill="white"/>
</clipPath>
</defs>
</svg>
