<svg width="27" height="26" viewBox="0 0 27 26" fill="none" xmlns="http://www.w3.org/2000/svg">
<path d="M27 26H0V0H27V26Z" stroke="#E5E7EB"/>
<g clip-path="url(#clip0_717_2247)">
<path d="M0 7.2735V21.7954C0 22.6391 0.473438 23.436 1.26562 23.7313C5.34375 25.2547 9.42188 24.2141 13.5 23.1735C17.2406 22.2219 20.9812 21.2657 24.7172 22.2876C25.7953 22.5829 27 21.8422 27 20.7219V6.20475C27 5.361 26.5266 4.56412 25.7344 4.26881C21.6562 2.74537 17.5781 3.786 13.5 4.82662C9.75937 5.77818 6.01875 6.72975 2.28281 5.70787C1.2 5.41256 0 6.15318 0 7.2735ZM13.5 18.5001C11.4281 18.5001 9.75 16.4844 9.75 14.0001C9.75 11.5157 11.4281 9.50006 13.5 9.50006C15.5719 9.50006 17.25 11.5157 17.25 14.0001C17.25 16.4844 15.5719 18.5001 13.5 18.5001ZM3 18.5001C4.65469 18.5001 6 19.8454 6 21.5001H3V18.5001ZM6 8.75006C6 10.4047 4.65469 11.7501 3 11.7501V8.75006H6ZM24 16.2501V19.2501H21C21 17.5954 22.3453 16.2501 24 16.2501ZM21 6.50006H24V9.50006C22.3453 9.50006 21 8.15475 21 6.50006Z" fill="#009CDE"/>
</g>
<defs>
<clipPath id="clip0_717_2247">
<path d="M0 2H27V26H0V2Z" fill="white"/>
</clipPath>
</defs>
</svg>
