<svg width="22" height="32" viewBox="0 0 22 32" fill="none" xmlns="http://www.w3.org/2000/svg">
<path d="M22 32H0V0H22V32Z" stroke="#E5E7EB"/>
<g clip-path="url(#clip0_717_1565)">
<path d="M17.3781 5.09056C17.6547 4.44837 17.4484 3.69837 16.8812 3.28587C16.3141 2.87337 15.5406 2.91087 15.0109 3.37025L3.01093 13.8702C2.54218 14.2827 2.37343 14.9437 2.59374 15.5249C2.81405 16.1062 3.37655 16.4999 3.99999 16.4999H9.22655L5.62186 24.9093C5.3453 25.5515 5.55155 26.3015 6.11874 26.714C6.68593 27.1265 7.45937 27.089 7.98905 26.6296L19.9891 16.1296C20.4578 15.7171 20.6266 15.0562 20.4062 14.4749C20.1859 13.8937 19.6281 13.5046 19 13.5046H13.7734L17.3781 5.09056Z" fill="white"/>
</g>
<defs>
<clipPath id="clip0_717_1565">
<path d="M1 3H22V27H1V3Z" fill="white"/>
</clipPath>
</defs>
</svg>
