<svg width="18" height="27" viewBox="0 0 18 27" fill="none" xmlns="http://www.w3.org/2000/svg">
<path d="M18 27H0V0H18V27Z" stroke="#E5E7EB"/>
<g clip-path="url(#clip0_749_11731)">
<path d="M17.5594 8.55947C18.1453 7.97354 18.1453 7.02197 17.5594 6.43604C16.9734 5.8501 16.0219 5.8501 15.4359 6.43604L0.435913 21.436C-0.150024 22.022 -0.150024 22.9735 0.435913 23.5595C1.02185 24.1454 1.97341 24.1454 2.55935 23.5595L17.5594 8.55947ZM5.99998 9.0001C5.99998 8.20445 5.68391 7.44139 5.1213 6.87878C4.55869 6.31617 3.79563 6.0001 2.99998 6.0001C2.20433 6.0001 1.44126 6.31617 0.878655 6.87878C0.316046 7.44139 -2.44228e-05 8.20445 -2.44228e-05 9.0001C-2.44228e-05 9.79575 0.316046 10.5588 0.878655 11.1214C1.44126 11.684 2.20433 12.0001 2.99998 12.0001C3.79563 12.0001 4.55869 11.684 5.1213 11.1214C5.68391 10.5588 5.99998 9.79575 5.99998 9.0001ZM18 21.0001C18 20.2044 17.6839 19.4414 17.1213 18.8788C16.5587 18.3162 15.7956 18.0001 15 18.0001C14.2043 18.0001 13.4413 18.3162 12.8787 18.8788C12.316 19.4414 12 20.2044 12 21.0001C12 21.7957 12.316 22.5588 12.8787 23.1214C13.4413 23.684 14.2043 24.0001 15 24.0001C15.7956 24.0001 16.5587 23.684 17.1213 23.1214C17.6839 22.5588 18 21.7957 18 21.0001Z" fill="#009CDE"/>
</g>
<defs>
<clipPath id="clip0_749_11731">
<path d="M0 3H18V27H0V3Z" fill="white"/>
</clipPath>
</defs>
</svg>
