<svg width="18" height="28" viewBox="0 0 18 28" fill="none" xmlns="http://www.w3.org/2000/svg">
<path d="M18 28H0V0H18V28Z" stroke="#E5E7EB"/>
<g clip-path="url(#clip0_738_9431)">
<path d="M3.75 4C1.67969 4 0 5.67969 0 7.75V20.25C0 22.3203 1.67969 24 3.75 24H15H16.25C16.9414 24 17.5 23.4414 17.5 22.75C17.5 22.0586 16.9414 21.5 16.25 21.5V19C16.9414 19 17.5 18.4414 17.5 17.75V5.25C17.5 4.55859 16.9414 4 16.25 4H15H3.75ZM3.75 19H13.75V21.5H3.75C3.05859 21.5 2.5 20.9414 2.5 20.25C2.5 19.5586 3.05859 19 3.75 19ZM5 9.625C5 9.28125 5.28125 9 5.625 9H13.125C13.4688 9 13.75 9.28125 13.75 9.625C13.75 9.96875 13.4688 10.25 13.125 10.25H5.625C5.28125 10.25 5 9.96875 5 9.625ZM5.625 11.5H13.125C13.4688 11.5 13.75 11.7812 13.75 12.125C13.75 12.4688 13.4688 12.75 13.125 12.75H5.625C5.28125 12.75 5 12.4688 5 12.125C5 11.7812 5.28125 11.5 5.625 11.5Z" fill="#009CDE"/>
</g>
<defs>
<clipPath id="clip0_738_9431">
<path d="M0 4H17.5V24H0V4Z" fill="white"/>
</clipPath>
</defs>
</svg>
