<svg width="23" height="30" viewBox="0 0 23 30" fill="none" xmlns="http://www.w3.org/2000/svg">
<path d="M23 30H0V0H23V30Z" stroke="#E5E7EB"/>
<g clip-path="url(#clip0_717_2150)">
<path d="M4 0C1.93164 0 0.25 1.68164 0.25 3.75V26.25C0.25 28.3184 1.93164 30 4 30H19C21.0684 30 22.75 28.3184 22.75 26.25V9.375H15.25C14.2129 9.375 13.375 8.53711 13.375 7.5V0H4ZM15.25 0V7.5H22.75L15.25 0ZM4.9375 3.75H8.6875C9.20312 3.75 9.625 4.17188 9.625 4.6875C9.625 5.20312 9.20312 5.625 8.6875 5.625H4.9375C4.42188 5.625 4 5.20312 4 4.6875C4 4.17188 4.42188 3.75 4.9375 3.75ZM4.9375 7.5H8.6875C9.20312 7.5 9.625 7.92188 9.625 8.4375C9.625 8.95312 9.20312 9.375 8.6875 9.375H4.9375C4.42188 9.375 4 8.95312 4 8.4375C4 7.92188 4.42188 7.5 4.9375 7.5ZM5.875 13.125H17.125C18.1621 13.125 19 13.9629 19 15V18.75C19 19.7871 18.1621 20.625 17.125 20.625H5.875C4.83789 20.625 4 19.7871 4 18.75V15C4 13.9629 4.83789 13.125 5.875 13.125ZM5.875 15V18.75H17.125V15H5.875ZM14.3125 24.375H18.0625C18.5781 24.375 19 24.7969 19 25.3125C19 25.8281 18.5781 26.25 18.0625 26.25H14.3125C13.7969 26.25 13.375 25.8281 13.375 25.3125C13.375 24.7969 13.7969 24.375 14.3125 24.375Z" fill="#009CDE"/>
</g>
<defs>
<clipPath id="clip0_717_2150">
<path d="M0.25 0H22.75V30H0.25V0Z" fill="white"/>
</clipPath>
</defs>
</svg>
