<svg width="36" height="44" viewBox="0 0 36 44" fill="none" xmlns="http://www.w3.org/2000/svg">
<path d="M36 44H0V0H36V44Z" stroke="#E5E7EB"/>
<path d="M36 38H0V2H36V38Z" stroke="#E5E7EB"/>
<path d="M4.5 6.5C4.5 5.25547 3.49453 4.25 2.25 4.25C1.00547 4.25 0 5.25547 0 6.5V30.125C0 33.2328 2.51719 35.75 5.625 35.75H33.75C34.9945 35.75 36 34.7445 36 33.5C36 32.2555 34.9945 31.25 33.75 31.25H5.625C5.00625 31.25 4.5 30.7437 4.5 30.125V6.5ZM33.0891 12.5891C33.968 11.7102 33.968 10.2828 33.0891 9.40391C32.2102 8.525 30.7828 8.525 29.9039 9.40391L22.5 16.8148L18.4641 12.7789C17.5852 11.9 16.1578 11.9 15.2789 12.7789L7.40391 20.6539C6.525 21.5328 6.525 22.9602 7.40391 23.8391C8.28281 24.718 9.71016 24.718 10.5891 23.8391L16.875 17.5602L20.9109 21.5961C21.7898 22.475 23.2172 22.475 24.0961 21.5961L33.0961 12.5961L33.0891 12.5891Z" fill="#009CDE"/>
</svg>
