<svg width="24" height="25" viewBox="0 0 24 25" fill="none" xmlns="http://www.w3.org/2000/svg">
<path d="M24 25H0V0H24V25Z" stroke="#E5E7EB"/>
<path d="M24 25H0V1H24V25Z" stroke="#E5E7EB"/>
<path d="M6.69844 7.69853C9.61406 4.7829 14.325 4.76884 17.2594 7.65165L15.3281 9.57822C15.0047 9.90165 14.9109 10.3845 15.0844 10.8063C15.2578 11.2282 15.6703 11.5001 16.125 11.5001H21.7266H22.125C22.7484 11.5001 23.25 10.9985 23.25 10.3751V4.37509C23.25 3.9204 22.9781 3.5079 22.5563 3.33447C22.1344 3.16103 21.6516 3.25478 21.3281 3.57822L19.3781 5.52822C15.2719 1.47353 8.65781 1.48759 4.575 5.57509C3.43125 6.71884 2.60625 8.06415 2.1 9.50322C1.82344 10.286 2.23594 11.1392 3.01406 11.4157C3.79219 11.6923 4.65 11.2798 4.92656 10.5017C5.2875 9.47978 5.87344 8.51884 6.69844 7.69853ZM0.75 15.6251V15.9813V16.0142V21.6251C0.75 22.0798 1.02187 22.4923 1.44375 22.6657C1.86562 22.8392 2.34844 22.7454 2.67188 22.422L4.62187 20.472C8.72812 24.5267 15.3422 24.5126 19.425 20.4251C20.5688 19.2813 21.3984 17.936 21.9047 16.5017C22.1812 15.7188 21.7687 14.8657 20.9906 14.5892C20.2125 14.3126 19.3547 14.7251 19.0781 15.5032C18.7172 16.5251 18.1313 17.486 17.3063 18.3063C14.3906 21.222 9.67969 21.236 6.74531 18.3532L8.67188 16.422C8.99531 16.0985 9.08906 15.6157 8.91562 15.1938C8.74219 14.772 8.32969 14.5001 7.875 14.5001H2.26875H2.23594H1.875C1.25156 14.5001 0.75 15.0017 0.75 15.6251Z" fill="#009CDE"/>
</svg>
