<svg width="24" height="32" viewBox="0 0 24 32" fill="none" xmlns="http://www.w3.org/2000/svg">
<path d="M24 32H0V0H24V32Z" stroke="#E5E7EB"/>
<g clip-path="url(#clip0_749_10179)">
<path d="M2.25 9C1.00781 9 0 10.0078 0 11.25C0 11.9578 0.332813 12.6234 0.9 13.05L11.1 20.7C11.6344 21.0984 12.3656 21.0984 12.9 20.7L23.1 13.05C23.6672 12.6234 24 11.9578 24 11.25C24 10.0078 22.9922 9 21.75 9H2.25ZM0 14.25V24C0 25.6547 1.34531 27 3 27H21C22.6547 27 24 25.6547 24 24V14.25L13.8 21.9C12.7312 22.7016 11.2688 22.7016 10.2 21.9L0 14.25Z" fill="#009CDE"/>
</g>
<defs>
<clipPath id="clip0_749_10179">
<path d="M0 6H24V30H0V6Z" fill="white"/>
</clipPath>
</defs>
</svg>
