<svg width="24" height="26" viewBox="0 0 24 26" fill="none" xmlns="http://www.w3.org/2000/svg">
<path d="M24 26H0V0H24V26Z" stroke="#E5E7EB"/>
<path d="M24 26H0V2H24V26Z" stroke="#E5E7EB"/>
<path d="M3 3.5C1.34531 3.5 0 4.84531 0 6.5V9.5C0 11.1547 1.34531 12.5 3 12.5H21C22.6547 12.5 24 11.1547 24 9.5V6.5C24 4.84531 22.6547 3.5 21 3.5H3ZM16.125 6.875C16.4234 6.875 16.7095 6.99353 16.9205 7.2045C17.1315 7.41548 17.25 7.70163 17.25 8C17.25 8.29837 17.1315 8.58452 16.9205 8.7955C16.7095 9.00647 16.4234 9.125 16.125 9.125C15.8266 9.125 15.5405 9.00647 15.3295 8.7955C15.1185 8.58452 15 8.29837 15 8C15 7.70163 15.1185 7.41548 15.3295 7.2045C15.5405 6.99353 15.8266 6.875 16.125 6.875ZM18.375 8C18.375 7.70163 18.4935 7.41548 18.7045 7.2045C18.9155 6.99353 19.2016 6.875 19.5 6.875C19.7984 6.875 20.0845 6.99353 20.2955 7.2045C20.5065 7.41548 20.625 7.70163 20.625 8C20.625 8.29837 20.5065 8.58452 20.2955 8.7955C20.0845 9.00647 19.7984 9.125 19.5 9.125C19.2016 9.125 18.9155 9.00647 18.7045 8.7955C18.4935 8.58452 18.375 8.29837 18.375 8ZM3 15.5C1.34531 15.5 0 16.8453 0 18.5V21.5C0 23.1547 1.34531 24.5 3 24.5H21C22.6547 24.5 24 23.1547 24 21.5V18.5C24 16.8453 22.6547 15.5 21 15.5H3ZM16.125 18.875C16.4234 18.875 16.7095 18.9935 16.9205 19.2045C17.1315 19.4155 17.25 19.7016 17.25 20C17.25 20.2984 17.1315 20.5845 16.9205 20.7955C16.7095 21.0065 16.4234 21.125 16.125 21.125C15.8266 21.125 15.5405 21.0065 15.3295 20.7955C15.1185 20.5845 15 20.2984 15 20C15 19.7016 15.1185 19.4155 15.3295 19.2045C15.5405 18.9935 15.8266 18.875 16.125 18.875ZM18.75 20C18.75 19.7016 18.8685 19.4155 19.0795 19.2045C19.2905 18.9935 19.5766 18.875 19.875 18.875C20.1734 18.875 20.4595 18.9935 20.6705 19.2045C20.8815 19.4155 21 19.7016 21 20C21 20.2984 20.8815 20.5845 20.6705 20.7955C20.4595 21.0065 20.1734 21.125 19.875 21.125C19.5766 21.125 19.2905 21.0065 19.0795 20.7955C18.8685 20.5845 18.75 20.2984 18.75 20Z" fill="#009CDE"/>
</svg>
