<svg width="27" height="32" viewBox="0 0 27 32" fill="none" xmlns="http://www.w3.org/2000/svg">
<path d="M26.1562 32H0.09375V0H26.1562V32Z" stroke="#E5E7EB"/>
<g clip-path="url(#clip0_717_2144)">
<path d="M5.51484 20.4629C5.51484 21.9805 4.275 23.2203 2.75742 23.2203C1.23984 23.2203 0 21.9805 0 20.4629C0 18.9453 1.23984 17.7055 2.75742 17.7055H5.51484V20.4629ZM6.90469 20.4629C6.90469 18.9453 8.14453 17.7055 9.66211 17.7055C11.1797 17.7055 12.4195 18.9453 12.4195 20.4629V27.3676C12.4195 28.8852 11.1797 30.125 9.66211 30.125C8.14453 30.125 6.90469 28.8852 6.90469 27.3676V20.4629ZM9.66211 9.38984C8.14453 9.38984 6.90469 8.15 6.90469 6.63242C6.90469 5.11484 8.14453 3.875 9.66211 3.875C11.1797 3.875 12.4195 5.11484 12.4195 6.63242V9.38984H9.66211ZM9.66211 10.7797C11.1797 10.7797 12.4195 12.0195 12.4195 13.5371C12.4195 15.0547 11.1797 16.2945 9.66211 16.2945H2.75742C1.23984 16.2945 0 15.0547 0 13.5371C0 12.0195 1.23984 10.7797 2.75742 10.7797H9.66211ZM20.7352 13.5371C20.7352 12.0195 21.975 10.7797 23.4926 10.7797C25.0102 10.7797 26.25 12.0195 26.25 13.5371C26.25 15.0547 25.0102 16.2945 23.4926 16.2945H20.7352V13.5371ZM19.3453 13.5371C19.3453 15.0547 18.1055 16.2945 16.5879 16.2945C15.0703 16.2945 13.8305 15.0547 13.8305 13.5371V6.63242C13.8305 5.11484 15.0703 3.875 16.5879 3.875C18.1055 3.875 19.3453 5.11484 19.3453 6.63242V13.5371ZM16.5879 24.6102C18.1055 24.6102 19.3453 25.85 19.3453 27.3676C19.3453 28.8852 18.1055 30.125 16.5879 30.125C15.0703 30.125 13.8305 28.8852 13.8305 27.3676V24.6102H16.5879ZM16.5879 23.2203C15.0703 23.2203 13.8305 21.9805 13.8305 20.4629C13.8305 18.9453 15.0703 17.7055 16.5879 17.7055H23.4926C25.0102 17.7055 26.25 18.9453 26.25 20.4629C26.25 21.9805 25.0102 23.2203 23.4926 23.2203H16.5879Z" fill="#009CDE"/>
</g>
<defs>
<clipPath id="clip0_717_2144">
<path d="M0 2H26.25V32H0V2Z" fill="white"/>
</clipPath>
</defs>
</svg>
