<svg width="38" height="37" viewBox="0 0 38 37" fill="none" xmlns="http://www.w3.org/2000/svg">
<path d="M38 37H0V0H38V37Z" stroke="#E5E7EB"/>
<g clip-path="url(#clip0_717_2149)">
<path d="M9.91797 15.4785L7.38086 16.0176L7.36914 24.3613C7.36914 25.9023 8.5293 26.8984 10.0703 26.8984C10.9258 26.8984 11.5527 26.7402 11.8984 26.5527V24.5723C11.5645 24.707 9.92383 25.1875 9.92383 23.6523V19.9492H11.8984V17.7344H9.92383L9.91797 15.4785ZM15.1387 18.502L14.9805 17.7344H12.7305V26.7109H15.3262V20.6699C15.9414 19.8613 16.9785 20.0195 17.3125 20.125V17.7344C16.9609 17.6113 15.748 17.3828 15.1387 18.502ZM20.5469 14.2656L17.9336 14.8223V16.9434L20.5469 16.3867V14.2656ZM2.88086 20.377C2.88086 19.9727 3.2207 19.8145 3.76562 19.8086C4.55664 19.8086 5.56445 20.0488 6.35547 20.4766V18.0273C5.49414 17.6875 4.63281 17.5527 3.77148 17.5527C1.66211 17.5527 0.255859 18.6543 0.255859 20.4941C0.255859 23.377 4.21094 22.9082 4.21094 24.1504C4.21094 24.6309 3.79492 24.7891 3.21484 24.7891C2.35352 24.7891 1.24023 24.4316 0.367187 23.957V26.3008C1.33398 26.7168 2.3125 26.8926 3.20898 26.8926C5.37109 26.8926 6.85938 25.9668 6.85938 24.0918C6.85938 20.9922 2.88086 21.5488 2.88086 20.377ZM37.75 22.3281C37.75 19.6621 36.4609 17.5586 33.9883 17.5586C31.5156 17.5586 30.0098 19.6621 30.0098 22.3105C30.0098 25.4453 31.7852 26.8926 34.3164 26.8926C35.5586 26.8926 36.4902 26.6113 37.1992 26.2188V24.2617C36.4902 24.6191 35.6758 24.8359 34.6445 24.8359C33.6309 24.8359 32.7402 24.4785 32.623 23.2598H37.7148C37.7266 23.125 37.75 22.5801 37.75 22.3281ZM32.5996 21.3438C32.5996 20.1719 33.3203 19.6797 33.9707 19.6797C34.6094 19.6797 35.2891 20.1719 35.2891 21.3438H32.5996ZM25.9844 17.5586C24.9648 17.5586 24.3086 18.0391 23.9453 18.373L23.8105 17.7285H21.5195V29.7285L24.1211 29.1777L24.127 26.2363C24.502 26.5117 25.0586 26.8926 25.9668 26.8926C27.8301 26.8926 29.5293 25.5332 29.5293 22.2285C29.5352 19.2051 27.8125 17.5586 25.9844 17.5586ZM25.3633 24.7363C24.7539 24.7363 24.3906 24.5137 24.1387 24.2441L24.1211 20.377C24.3906 20.0781 24.7656 19.8613 25.3633 19.8613C26.3125 19.8613 26.9687 20.9277 26.9687 22.2871C26.9746 23.6875 26.3301 24.7363 25.3633 24.7363ZM17.9395 26.7109H20.5527V17.7344H17.9395V26.7109Z" fill="#009CDE"/>
</g>
<defs>
<clipPath id="clip0_717_2149">
<path d="M0.25 7H37.75V37H0.25V7Z" fill="white"/>
</clipPath>
</defs>
</svg>
