<svg width="24" height="24" viewBox="0 0 24 24" fill="none" xmlns="http://www.w3.org/2000/svg">
<path d="M24 24H0V0H24V24Z" stroke="#E5E7EB"/>
<g clip-path="url(#clip0_717_315)">
<path d="M11.4094 0.121973L0.90943 4.62197C0.25318 4.90322 -0.112445 5.60635 0.0328674 6.3001C0.17818 6.99385 0.787555 7.5001 1.50005 7.5001V7.8751C1.50005 8.49854 2.00162 9.0001 2.62505 9.0001H21.3751C21.9985 9.0001 22.5001 8.49854 22.5001 7.8751V7.5001C23.2126 7.5001 23.8266 6.99854 23.9672 6.3001C24.1079 5.60166 23.7422 4.89854 23.0907 4.62197L12.5907 0.121973C12.2157 -0.0374023 11.7844 -0.0374023 11.4094 0.121973ZM6.00005 10.5001H3.00005V19.7017C2.97193 19.7157 2.9438 19.7345 2.91568 19.7532L0.66568 21.2532C0.117242 21.6188 -0.131195 22.3032 0.0609924 22.936C0.25318 23.5688 0.839117 24.0001 1.50005 24.0001H22.5001C23.161 24.0001 23.7422 23.5688 23.9344 22.936C24.1266 22.3032 23.8829 21.6188 23.3297 21.2532L21.0797 19.7532C21.0516 19.7345 21.0235 19.7204 20.9954 19.7017V10.5001H18.0001V19.5001H16.1251V10.5001H13.1251V19.5001H10.8751V10.5001H7.87505V19.5001H6.00005V10.5001ZM12.0001 3.0001C12.3979 3.0001 12.7794 3.15813 13.0607 3.43944C13.342 3.72074 13.5001 4.10227 13.5001 4.5001C13.5001 4.89792 13.342 5.27945 13.0607 5.56076C12.7794 5.84206 12.3979 6.0001 12.0001 6.0001C11.6022 6.0001 11.2207 5.84206 10.9394 5.56076C10.6581 5.27945 10.5001 4.89792 10.5001 4.5001C10.5001 4.10227 10.6581 3.72074 10.9394 3.43944C11.2207 3.15813 11.6022 3.0001 12.0001 3.0001Z" fill="#009CDE"/>
</g>
<defs>
<clipPath id="clip0_717_315">
<path d="M0 0H24V24H0V0Z" fill="white"/>
</clipPath>
</defs>
</svg>
