<svg width="30" height="24" viewBox="0 0 30 24" fill="none" xmlns="http://www.w3.org/2000/svg">
<path d="M30 24H0V0H30V24Z" stroke="#E5E7EB"/>
<g clip-path="url(#clip0_738_6385)">
<path d="M6.75 7.5C7.74456 7.5 8.69839 7.10491 9.40165 6.40165C10.1049 5.69839 10.5 4.74456 10.5 3.75C10.5 2.75544 10.1049 1.80161 9.40165 1.09835C8.69839 0.395088 7.74456 0 6.75 0C5.75544 0 4.80161 0.395088 4.09835 1.09835C3.39509 1.80161 3 2.75544 3 3.75C3 4.74456 3.39509 5.69839 4.09835 6.40165C4.80161 7.10491 5.75544 7.5 6.75 7.5ZM24 7.5C24.9946 7.5 25.9484 7.10491 26.6516 6.40165C27.3549 5.69839 27.75 4.74456 27.75 3.75C27.75 2.75544 27.3549 1.80161 26.6516 1.09835C25.9484 0.395088 24.9946 0 24 0C23.0054 0 22.0516 0.395088 21.3484 1.09835C20.6451 1.80161 20.25 2.75544 20.25 3.75C20.25 4.74456 20.6451 5.69839 21.3484 6.40165C22.0516 7.10491 23.0054 7.5 24 7.5ZM0 14.0016C0 14.55 0.45 15 0.998437 15H11.0016C11.0109 15 11.0203 15 11.0344 15C9.7875 13.8984 9.00469 12.2906 9.00469 10.5C9.00469 10.1438 9.0375 9.79688 9.09375 9.45469C8.45625 9.15938 7.74844 9 7.00312 9H5.00156C2.24062 9 0 11.2406 0 14.0016ZM15 15C16.125 15 17.1516 14.5875 17.9391 13.9078C18.0563 13.7344 18.1828 13.5656 18.3141 13.4062C18.4406 13.2516 18.5813 13.1203 18.7359 13.0172C19.2188 12.2953 19.5 11.4328 19.5 10.5C19.5 8.01562 17.4844 6 15 6C12.5156 6 10.5 8.01562 10.5 10.5C10.5 12.9844 12.5156 15 15 15ZM18.0656 17.8219C17.5828 17.5453 17.2172 17.0625 17.0906 16.5H12.2484C8.79844 16.5 6 19.2984 6 22.7484C6 23.4375 6.55781 24 7.25156 24H21.3375C21.2391 23.7563 21.1875 23.4891 21.1875 23.2313V23.0906C21.1266 23.0578 21.0609 23.0203 21 22.9828L20.8781 23.0531C20.0906 23.5078 18.9797 23.4281 18.3141 22.5984C18.1031 22.3359 17.9109 22.0594 17.7328 21.7734L17.7281 21.7641L17.7234 21.7547L17.6109 21.5625L17.6063 21.5531L17.6016 21.5438C17.4422 21.2531 17.3016 20.9531 17.1797 20.6391C16.7953 19.6453 17.2828 18.6422 18.0703 18.1875L18.1969 18.1172C18.1969 18.0797 18.1969 18.0469 18.1969 18.0094C18.1969 17.9719 18.1969 17.9391 18.1969 17.9016L18.0703 17.8312L18.0656 17.8219ZM24.9984 9H23.0016C22.2563 9 21.5484 9.16406 20.9109 9.45469C20.9719 9.79219 21 10.1438 21 10.5C21 11.3156 20.8359 12.0891 20.5453 12.7969C20.6625 12.8391 20.775 12.8906 20.8781 12.9516L21 13.0219C21.0609 12.9844 21.1219 12.9469 21.1875 12.9141V12.7734C21.1875 11.8641 21.8109 10.9406 22.8656 10.7766C23.2359 10.7203 23.6156 10.6875 24 10.6875C24.3844 10.6875 24.7641 10.7156 25.1344 10.7766C26.1891 10.9406 26.8125 11.8641 26.8125 12.7734V12.9141C26.8734 12.9469 26.9391 12.9844 27 13.0219L27.1219 12.9516C27.9094 12.4969 29.0203 12.5766 29.6859 13.4062C29.7937 13.5375 29.8969 13.6781 29.9953 13.8141C29.8969 11.1375 27.6984 9 24.9984 9ZM29.2781 16.6828C29.5734 16.5141 29.7234 16.1625 29.5969 15.8391C29.4984 15.5812 29.3813 15.3328 29.25 15.0938L29.1422 14.9062C28.9969 14.6672 28.8375 14.4422 28.6641 14.2266C28.4484 13.9594 28.0688 13.9125 27.7734 14.0859L26.925 14.5781C26.5078 14.2219 26.0297 13.9406 25.5 13.7531V12.7687C25.5 12.4266 25.2703 12.1219 24.9328 12.0703C24.6281 12.0234 24.3188 12 24 12C23.6812 12 23.3719 12.0234 23.0672 12.0703C22.7297 12.1219 22.5 12.4266 22.5 12.7687V13.7531C21.975 13.9406 21.4922 14.2219 21.075 14.5781L20.2219 14.0859C19.9266 13.9172 19.5469 13.9641 19.3312 14.2266C19.1578 14.4422 18.9984 14.6719 18.8531 14.9109L18.7453 15.0938C18.6141 15.3328 18.4969 15.5812 18.3984 15.8391C18.2766 16.1578 18.4219 16.5094 18.7172 16.6781L19.5703 17.1703C19.5234 17.4375 19.4953 17.7141 19.4953 17.9953C19.4953 18.2766 19.5234 18.5531 19.5703 18.8156L18.7172 19.3078C18.4219 19.4766 18.2719 19.8281 18.3984 20.1469C18.4969 20.4047 18.6141 20.6484 18.7453 20.8875L18.8578 21.0797C18.9984 21.3188 19.1578 21.5438 19.3312 21.7594C19.5469 22.0266 19.9266 22.0734 20.2219 21.9L21.075 21.4219C21.4922 21.7781 21.975 22.0594 22.5 22.2469V23.2313C22.5 23.5734 22.7297 23.8781 23.0672 23.9297C23.3719 23.9766 23.6812 24 24 24C24.3188 24 24.6281 23.9766 24.9328 23.9297C25.2703 23.8781 25.5 23.5734 25.5 23.2313V22.2469C26.025 22.0594 26.5078 21.7781 26.925 21.4219L27.7781 21.9141C28.0734 22.0828 28.4531 22.0359 28.6687 21.7734C28.8422 21.5578 29.0016 21.3328 29.1422 21.0938L29.2547 20.8969C29.3859 20.6578 29.5031 20.4141 29.6016 20.1562C29.7234 19.8375 29.5781 19.4859 29.2828 19.3172L28.4297 18.825C28.4766 18.5578 28.5047 18.2812 28.5047 18.0047C28.5047 17.7281 28.4766 17.4469 28.4297 17.1797L29.2828 16.6875L29.2781 16.6828ZM22.125 18C22.125 17.5027 22.3225 17.0258 22.6742 16.6742C23.0258 16.3225 23.5027 16.125 24 16.125C24.4973 16.125 24.9742 16.3225 25.3258 16.6742C25.6775 17.0258 25.875 17.5027 25.875 18C25.875 18.4973 25.6775 18.9742 25.3258 19.3258C24.9742 19.6775 24.4973 19.875 24 19.875C23.5027 19.875 23.0258 19.6775 22.6742 19.3258C22.3225 18.9742 22.125 18.4973 22.125 18Z" fill="#009CDE"/>
</g>
<defs>
<clipPath id="clip0_738_6385">
<path d="M0 0H30V24H0V0Z" fill="white"/>
</clipPath>
</defs>
</svg>
