<svg width="14" height="24" viewBox="0 0 14 24" fill="none" xmlns="http://www.w3.org/2000/svg">
<path d="M14 24H0V0H14V24Z" stroke="#E5E7EB"/>
<g clip-path="url(#clip0_749_10274)">
<path d="M13.9998 10.5597C12.6241 10.563 11.282 10.1339 10.1633 9.33313V14.9181C10.1629 15.9525 9.84674 16.9622 9.25706 17.812C8.66738 18.6619 7.83229 19.3115 6.86347 19.6739C5.89464 20.0364 4.83825 20.0944 3.83556 19.8402C2.83286 19.5861 1.93165 19.0319 1.25243 18.2517C0.573211 17.4716 0.148357 16.5026 0.0346788 15.4745C-0.0789997 14.4464 0.123915 13.408 0.616291 12.4983C1.10867 11.5886 1.86704 10.8509 2.78999 10.3839C3.71294 9.91681 4.75649 9.74265 5.7811 9.88469V12.6938C5.31224 12.5463 4.80876 12.5507 4.34258 12.7064C3.87639 12.8622 3.47134 13.1612 3.18525 13.5609C2.89916 13.9606 2.74668 14.4404 2.74958 14.9319C2.75247 15.4234 2.9106 15.9014 3.20137 16.2977C3.49214 16.694 3.9007 16.9882 4.36868 17.1385C4.83667 17.2887 5.34016 17.2872 5.80725 17.1342C6.27434 16.9812 6.68115 16.6845 6.96957 16.2866C7.258 15.8886 7.4133 15.4096 7.41329 14.9181V4H10.1633C10.1614 4.23223 10.1808 4.46415 10.2214 4.69281C10.317 5.20328 10.5157 5.68888 10.8053 6.11992C11.095 6.55096 11.4696 6.91837 11.9061 7.19969C12.5272 7.61034 13.2553 7.82922 13.9998 7.82906V10.5597Z" fill="black"/>
</g>
<defs>
<clipPath id="clip0_749_10274">
<path d="M0 4H14V20H0V4Z" fill="white"/>
</clipPath>
</defs>
</svg>
