<svg width="15" height="22" viewBox="0 0 15 22" fill="none" xmlns="http://www.w3.org/2000/svg">
<path d="M15 22H0V0H15V22Z" stroke="#E5E7EB"/>
<g clip-path="url(#clip0_738_6365)">
<path d="M14.6328 6.63281C15.1211 6.14453 15.1211 5.35156 14.6328 4.86328C14.1445 4.375 13.3516 4.375 12.8633 4.86328L0.363281 17.3633C-0.125 17.8516 -0.125 18.6445 0.363281 19.1328C0.851562 19.6211 1.64453 19.6211 2.13281 19.1328L14.6328 6.63281ZM5 7C5 6.33696 4.73661 5.70107 4.26777 5.23223C3.79893 4.76339 3.16304 4.5 2.5 4.5C1.83696 4.5 1.20107 4.76339 0.732233 5.23223C0.263392 5.70107 -7.45058e-09 6.33696 -7.45058e-09 7C-7.45058e-09 7.66304 0.263392 8.29893 0.732233 8.76777C1.20107 9.23661 1.83696 9.5 2.5 9.5C3.16304 9.5 3.79893 9.23661 4.26777 8.76777C4.73661 8.29893 5 7.66304 5 7ZM15 17C15 16.337 14.7366 15.7011 14.2678 15.2322C13.7989 14.7634 13.163 14.5 12.5 14.5C11.837 14.5 11.2011 14.7634 10.7322 15.2322C10.2634 15.7011 10 16.337 10 17C10 17.663 10.2634 18.2989 10.7322 18.7678C11.2011 19.2366 11.837 19.5 12.5 19.5C13.163 19.5 13.7989 19.2366 14.2678 18.7678C14.7366 18.2989 15 17.663 15 17Z" fill="white"/>
</g>
<defs>
<clipPath id="clip0_738_6365">
<path d="M0 2H15V22H0V2Z" fill="white"/>
</clipPath>
</defs>
</svg>
