<svg xmlns="http://www.w3.org/2000/svg" xmlns:xlink="http://www.w3.org/1999/xlink" version="1.1" width="133" height="36" viewBox="259 399 1366 309">
<desc>Created with SVGMaker Editor 2.2.3</desc>
<defs>
</defs>
<path transform="translate(0,0)" style="fill: rgb(0,156,222)" stroke-linecap="round" d="M305.8224 402.4189C306.5151 402.4152 307.2078 402.4115 307.9214 402.4078 310.2364 402.3968 312.5513 402.3929 314.8662 402.3891 316.529 402.3828 318.1917 402.3762 319.8544 402.3692 325.3116 402.3482 330.7687 402.3378 336.2259 402.3278 338.1092 402.3237 339.9925 402.3196 341.8759 402.3154 350.7296 402.2964 359.5833 402.2822 368.4371 402.2738 378.6315 402.2641 388.8258 402.2378 399.0202 402.1973 406.9151 402.1671 414.81 402.1524 422.705 402.149 427.4126 402.1467 432.12 402.1379 436.8276 402.1126 441.2641 402.0891 445.7003 402.0851 450.1368 402.0953 451.7548 402.0958 453.3728 402.0896 454.9907 402.0758 471.823 401.94 485.01 405.1362 497.636 417.0036 508.2211 428.2114 509.2734 440.466 509.2276 455.224 509.2333 456.8924 509.2402 458.5607 509.2484 460.229 509.2662 464.7353 509.2651 469.2414 509.2594 473.7476 509.2563 477.5198 509.2624 481.292 509.2685 485.0642 509.2825 493.9679 509.281 502.8716 509.2696 511.7753 509.2581 520.939 509.2722 530.1024 509.299 539.266 509.3212 547.1551 509.3277 555.0441 509.3219 562.9332 509.3185 567.6356 509.3209 572.3378 509.3381 577.0402 509.3537 581.4637 509.3496 585.8867 509.3308 590.3102 509.3272 591.9262 509.3302 593.5422 509.3407 595.1582 509.4305 610.1045 506.2342 621.2291 496.0501 632.5348 487.4233 640.834 476.4053 644.6685 464.6348 644.72 463.5652 644.7265 463.5652 644.7265 462.4739 644.7333 460.0899 644.7466 457.7059 644.7528 455.3218 644.7589 453.6098 644.7668 451.8978 644.7751 450.1858 644.7837 444.5664 644.8099 438.9469 644.8252 433.3274 644.8395 431.3884 644.8449 429.4493 644.8502 427.5102 644.8556 419.4387 644.8773 411.3671 644.896 403.2956 644.9073 391.7545 644.9235 380.2137 644.9566 368.6727 645.0137 360.5442 645.0525 352.4158 645.0719 344.2872 645.0772 339.4398 645.0808 334.5927 645.0927 329.7454 645.1253 325.1775 645.1556 320.6102 645.1616 316.0422 645.1499 314.3758 645.1497 312.7094 645.1579 311.0432 645.1756 296.5125 645.3214 283.7721 643.0339 272.8235 632.5661 271.8703 631.6553 271.8703 631.6553 270.8977 630.7262 259.4314 618.7197 258.5193 603.8093 258.5489 588.0573 258.5445 586.512 258.5393 584.9668 258.5334 583.4216 258.5201 579.2498 258.5194 575.0782 258.5219 570.9064 258.523 567.4104 258.5181 563.9144 258.5133 560.4183 258.5023 552.1617 258.5018 543.9052 258.5078 535.6486 258.5139 527.1633 258.5016 518.6781 258.4803 510.1928 258.4626 502.8795 258.4567 495.5662 258.4599 488.2528 258.4617 483.8974 258.4592 479.5422 258.4452 475.1868 258.4325 471.0859 258.4347 466.9853 258.4476 462.8845 258.4499 461.3907 258.4473 459.8968 258.439 458.4031 258.3676 444.5987 259.5449 432.0076 267.8235 420.5661 268.566 419.5142 269.3085 418.4623 270.0735 417.3786 279.8317 407.3986 291.9518 402.4668 305.8224 402.4189Z"/>
<path transform="translate(0,0)" style="fill: rgb(0,157,206)" stroke-linecap="round" d="M1317.8235 415.5661C1331.6835 415.5661 1345.5435 415.5661 1359.8235 415.5661 1359.8235 485.8561 1359.8235 556.1461 1359.8235 628.5661 1345.9635 628.5661 1332.1035 628.5661 1317.8235 628.5661 1317.4935 621.9661 1317.1635 615.3661 1316.8235 608.5661 1315.8335 609.7623 1314.8435 610.9586 1313.8235 612.1911 1303.3924 624.0171 1289.1835 630.5265 1273.5081 631.7463 1253.6608 632.8463 1235.4367 628.7663 1219.9675 615.7387 1204.1806 601.6035 1195.0987 581.4763 1192.8235 560.5661 1191.9084 541.8465 1193.0087 524.8527 1200.8235 507.5661 1201.2424 506.6328 1201.6614 505.6995 1202.093 504.738 1206.037 496.7818 1211.6148 490.7927 1217.8235 484.5661 1218.8116 483.5432 1218.8116 483.5432 1219.8196 482.4997 1232.752 470.0679 1251.216 465.9042 1268.6023 466.1679 1285.8763 466.7797 1302.2982 473.444 1314.8235 485.5661 1315.8135 487.0511 1315.8135 487.0511 1316.8235 488.5661 1317.1535 464.4761 1317.4835 440.3861 1317.8235 415.5661ZM1245.0891 516.7575C1235.8245 528.2425 1233.8036 541.1923 1234.8235 555.5661 1236.861 568.6504 1242.4943 580.2293 1253.1751 588.3552 1262.3997 594.2999 1272.6509 597.0985 1283.511 595.0622 1295.4286 592.1656 1305.0616 586.2075 1311.6516 575.6325 1318.8259 561.9631 1320.2484 546.1587 1315.8547 531.2692 1311.5083 519.8762 1303.4978 510.5166 1292.2962 505.4958 1274.9134 498.9601 1257.7885 503.3193 1245.0891 516.7575Z"/>
<path transform="translate(0,0)" style="fill: rgb(0,157,206)" stroke-linecap="round" d="M966.8235 482.066C968.1774 483.2088 969.5116 484.3753 970.8235 485.566 971.5067 486.1693 972.1899 486.7726 972.8938 487.3941 986.1935 499.8342 994.1437 518.4071 994.9553 536.5059 995.4166 555.1935 995.4166 555.1935 993.8235 561.566 955.5435 561.566 917.2635 561.566 877.8235 561.566 882.5292 579.2473 882.5292 579.2473 894.7805 591.3863 904.3944 596.9377 915.7769 598.0769 926.4954 595.3785 935.3455 592.2899 941.6356 586.9417 945.8235 578.566 960.6735 578.566 975.5235 578.566 990.8235 578.566 984.5212 599.5737 972.5074 613.8545 953.1985 624.3785 932.8201 633.9553 907.9133 634.678 886.6672 627.4996 865.3886 619.1911 850.8102 605.313 841.5828 584.4586 832.5123 561.8495 833.1195 533.9553 842.4602 511.5816 843.135 510.0889 843.135 510.0889 843.8235 508.566 844.2424 507.6327 844.6614 506.6994 845.093 505.7379 853.466 488.8472 868.7435 477.6147 885.8235 470.566 889.7909 469.26 893.7095 468.2741 897.8235 467.566 898.8676 467.3855 899.9118 467.2051 900.9876 467.0191 924.6064 464.2291 947.4737 467.6115 966.8235 482.066ZM886.0735 513.441C881.36 519.9875 879.6298 525.4377 877.8235 533.566 902.2435 533.566 926.6635 533.566 951.8235 533.566 951.8235 524.713 949.7958 517.7137 943.6438 511.1598 934.2322 502.9195 923.6155 499.9105 911.2883 500.2183 900.9326 501.2574 893.1466 506.0464 886.0735 513.441Z"/>
<path transform="translate(0,0)" style="fill: rgb(0,157,206)" stroke-linecap="round" d="M1449.8235 469.566C1465.0035 469.566 1480.1835 469.566 1495.8235 469.566 1499.0868 477.398 1502.2408 485.189 1505.1594 493.1441 1505.5561 494.2188 1505.9528 495.2934 1506.3615 496.4006 1507.2067 498.6907 1508.0508 500.9811 1508.8939 503.272 1511.1083 509.2874 1513.3318 515.2995 1515.554 521.3121 1515.9985 522.5155 1516.443 523.7189 1516.901 524.9587 1520.7598 535.4023 1524.6342 545.8399 1528.535 556.2678 1529.1841 558.0041 1529.8322 559.7409 1530.4792 561.478 1531.3661 563.8586 1532.2563 566.2379 1533.1477 568.6168 1533.5369 569.6643 1533.5369 569.6643 1533.9339 570.733 1534.9662 573.8923 1534.9662 573.8923 1536.8235 576.566 1537.1181 575.7712 1537.4128 574.9764 1537.7164 574.1575 1541.4585 564.0638 1545.2027 553.9708 1548.9485 543.8785 1549.2453 543.0788 1549.5421 542.279 1549.848 541.4551 1558.7549 517.4592 1567.7203 493.4883 1576.8235 469.566 1591.3435 469.566 1605.8635 469.566 1620.8235 469.566 1620.129 473.0383 1619.5851 475.4566 1618.2515 478.5821 1617.9285 479.3456 1617.6056 480.1091 1617.2729 480.8957 1616.743 482.1286 1616.743 482.1286 1616.2024 483.3863 1615.6457 484.6977 1615.6457 484.6977 1615.0777 486.0356 1614.2734 487.929 1613.4668 489.8216 1612.6584 491.7133 1610.9245 495.7709 1609.2011 499.8329 1607.4769 503.8947 1606.5827 506.0009 1605.688 508.1069 1604.7928 510.2126 1600.4107 520.5229 1596.0807 530.8545 1591.761 541.191 1591.0156 542.9733 1590.2702 544.7555 1589.5247 546.5377 1587.2901 551.8801 1585.0567 557.223 1582.8235 562.566 1579.8453 569.6914 1576.8664 576.8165 1573.886 583.941 1573.3314 585.2668 1573.3314 585.2668 1572.7656 586.6193 1566.5889 601.3811 1560.373 616.1261 1554.1401 630.8642 1549.6737 641.4259 1545.2202 651.9927 1540.8001 662.5738 1540.3903 663.5544 1539.9806 664.535 1539.5584 665.5453 1537.6019 670.2289 1535.6476 674.9134 1533.6965 679.5992 1532.9915 681.2887 1532.2864 682.9781 1531.5813 684.6676 1531.12 685.7788 1531.12 685.7788 1530.6493 686.9125 1528.1629 692.8631 1525.4965 698.6854 1522.8235 704.566 1508.3035 704.566 1493.7835 704.566 1478.8235 704.566 1480.8751 698.4111 1483.0013 692.5918 1485.6321 686.7027 1485.9954 685.8804 1486.3588 685.0581 1486.7331 684.2109 1487.5071 682.46 1488.2827 680.7098 1489.0599 678.9602 1490.2741 676.2239 1491.4812 673.4846 1492.686 670.7442 1496.037 663.1251 1499.3935 655.5089 1502.8057 647.917 1503.6841 645.9572 1504.5553 643.9945 1505.4234 642.0301 1506.4543 639.6996 1507.4983 637.3748 1508.5576 635.057 1509.0102 634.0261 1509.4627 632.9953 1509.929 631.9332 1510.5191 630.62 1510.5191 630.62 1511.1211 629.2804 1512.781 622.866 1510.0629 617.1008 1507.5696 611.2848 1507.2374 610.4912 1506.9052 609.6976 1506.5629 608.8799 1505.4695 606.2722 1504.3651 603.6692 1503.261 601.066 1502.488 599.2261 1501.7159 597.3857 1500.9448 595.545 1499.7534 592.7011 1498.5614 589.8575 1497.3665 587.0151 1493.7763 578.4742 1490.248 569.9087 1486.7399 561.3338 1485.7559 558.9285 1484.7707 556.5238 1483.7852 554.1192 1482.4647 550.8972 1481.1446 547.6751 1479.825 544.4527 1476.7491 536.9424 1473.6709 529.433 1470.5916 521.9241 1469.5864 519.4724 1468.5818 517.0206 1467.5772 514.5687 1464.4547 506.9516 1461.3196 499.3401 1458.1516 491.7418 1457.8656 491.0548 1457.5796 490.3678 1457.2849 489.66 1455.9528 486.4606 1454.6174 483.2628 1453.2756 480.0675 1452.8171 478.9674 1452.3585 477.8674 1451.886 476.734 1451.4851 475.7777 1451.0842 474.8215 1450.6712 473.8363 1449.8235 471.566 1449.8235 471.566 1449.8235 469.566Z"/>
<path transform="translate(0,0)" style="fill: rgb(0,157,206)" stroke-linecap="round" d="M1148.8079 479.7027C1162.467 491.2302 1168.9145 508.1588 1170.8235 525.566 1171.3182 533.5863 1171.175 541.6287 1171.1165 549.6597 1171.1109 551.9461 1171.1066 554.2326 1171.1036 556.519 1171.0923 562.4833 1171.0629 568.4473 1171.0295 574.4115 1170.9986 580.519 1170.9851 586.6264 1170.97 592.734 1170.938 604.6781 1170.8853 616.622 1170.8235 628.566 1157.2935 628.566 1143.7635 628.566 1129.8235 628.566 1129.7675 618.8477 1129.7675 618.8477 1129.7102 608.9332 1129.6799 604.8042 1129.6488 600.6753 1129.6145 596.5465 1129.5604 590.0072 1129.5093 583.4681 1129.4771 576.9288 1129.4509 571.6507 1129.4104 566.3729 1129.3603 561.095 1129.3438 559.0914 1129.3322 557.0878 1129.3259 555.0842 1129.7009 532.4159 1129.7009 532.4159 1120.1048 512.6715 1111.7708 504.817 1103.1747 502.4552 1091.8235 502.566 1083.2059 503.2634 1074.4168 506.3528 1068.4485 512.816 1058.1661 526.3806 1059.5075 544.2217 1059.4095 560.4019 1059.3907 562.3773 1059.3711 564.3527 1059.3508 566.3281 1059.2999 571.4801 1059.26 576.6322 1059.2226 581.7843 1059.1752 587.9913 1059.1138 594.1981 1059.0548 600.405 1058.9671 609.7919 1058.897 619.1789 1058.8235 628.566 1045.2935 628.566 1031.7635 628.566 1017.8235 628.566 1017.8235 576.096 1017.8235 523.626 1017.8235 469.566 1031.3535 469.566 1044.8835 469.566 1058.8235 469.566 1059.3185 477.981 1059.3185 477.981 1059.8235 486.566 1060.896 485.3904 1061.9685 484.2147 1063.0735 483.0035 1085.8613 460.3759 1123.8201 461.8122 1148.8079 479.7027Z"/>
<path transform="translate(0,0)" style="fill: rgb(0,157,206)" stroke-linecap="round" d="M563.8235 427.566C612.6635 427.566 661.5035 427.566 711.8235 427.566 711.8235 438.786 711.8235 450.006 711.8235 461.566 694.0035 461.566 676.1835 461.566 657.8235 461.566 657.8235 516.676 657.8235 571.786 657.8235 628.566 644.2935 628.566 630.7635 628.566 616.8235 628.566 616.8235 573.456 616.8235 518.346 616.8235 461.566 599.3335 461.566 581.8435 461.566 563.8235 461.566 563.8235 450.346 563.8235 439.126 563.8235 427.566Z"/>
<path transform="translate(0,0)" style="fill: rgb(253,254,254)" stroke-linecap="round" d="M482.8235 527.5661C485.0655 529.1207 486.8255 530.5184 488.7571 532.3864 489.2799 532.8821 489.8027 533.3778 490.3413 533.8886 491.4374 534.9413 492.5253 536.0025 493.6055 537.0715 495.2472 538.6776 496.9361 540.2191 498.634 541.7653 503.7962 546.6669 507.6838 551.3209 508.8001 558.5622 507.8002 570.4654 496.435 578.5144 488.2255 586.1358 485.796 588.4049 483.4068 590.7145 481.013 593.0212 478.3099 595.6254 475.6035 598.2236 472.8677 600.7934 467.8747 605.4912 463.2573 610.3403 458.8235 615.5661 455.9135 618.7186 454.1608 620.379 449.7323 620.7335 448.9281 620.7524 448.124 620.7712 447.2954 620.7907 446.3805 620.8132 445.4656 620.8357 444.5229 620.8589 440.3341 620.9302 436.1454 620.9875 431.9561 621.0261 429.7514 621.0526 427.5469 621.0936 425.3428 621.1491 422.1549 621.2285 418.9693 621.2614 415.7805 621.2849 414.8032 621.3178 413.8258 621.3508 412.8188 621.3848 406.5759 621.3667 403.343 620.2213 398.9283 615.7993 398.2337 615.0623 397.5391 614.3254 396.8235 613.5661 395.0286 611.8105 393.2316 610.057 391.4331 608.3051 389.4021 606.2876 387.3807 604.2606 385.3587 602.2341 384.274 601.1501 383.1893 600.0663 382.1044 598.9827 379.8479 596.7277 377.5932 594.4709 375.3399 592.2128 372.4492 589.3164 369.554 586.4246 366.6576 583.5341 364.4245 581.3046 362.1938 579.0728 359.9638 576.8402 358.8964 575.7721 357.8282 574.7048 356.7593 573.6382 355.2731 572.1546 353.7902 570.6678 352.3081 569.1801 351.464 568.3352 350.6199 567.4903 349.7502 566.6197 347.5436 564.2678 346.925 563.099 346.3235 559.9411 347.5839 551.4335 358.2839 543.9551 364.136 538.1286 365.0416 537.2192 365.9471 536.3097 366.8801 535.3727 367.7445 534.5097 368.6088 533.6467 369.4993 532.7575 370.2821 531.9758 371.065 531.194 371.8716 530.3886 374.8391 527.6178 377.4054 526.8937 381.5112 526.9648 386.6659 528.3053 390.043 533.0137 393.5462 536.7888 394.9277 538.2166 396.3093 539.6444 397.6923 541.071 400.1076 543.5736 402.4959 546.1018 404.886 548.6286 407.7424 551.6482 410.6031 554.6626 413.4962 557.647 415.2939 559.505 417.0733 561.3809 418.8321 563.2758 423.3315 568.058 423.3315 568.058 429.324 570.1987 434.7146 567.6839 438.3152 563.7884 442.4055 559.5349 443.3009 558.6286 444.1963 557.7223 445.1188 556.7886 447.4882 554.386 449.8439 551.9715 452.1936 549.5497 455.5159 546.1325 458.8634 542.7401 462.2067 539.3436 463.984 537.535 465.757 535.7222 467.5254 533.9048 468.3235 533.0873 469.1216 532.2697 469.9439 531.4274 470.6467 530.7043 471.3495 529.9812 472.0736 529.2361 475.6454 525.8274 478.1364 526.4853 482.8235 527.5661Z"/>
<path transform="translate(0,0)" style="fill: rgb(253,254,254)" stroke-linecap="round" d="M292.8235 431.566C295.0612 433.236 295.0612 433.236 297.1731 435.4273 298.3747 436.6536 298.3747 436.6536 299.6005 437.9047 300.4475 438.7933 301.2945 439.6818 302.1673 440.5973 303.0546 441.5035 303.9419 442.4098 304.8561 443.3435 308.1716 446.7304 311.464 450.1391 314.7552 453.5496 317.9828 456.8917 321.2292 460.2149 324.4798 463.5348 325.7503 464.8675 325.7503 464.8675 327.0465 466.2273 327.8476 467.0448 328.6486 467.8624 329.4739 468.7047 330.1708 469.4278 330.8678 470.1509 331.5858 470.896 334.4058 473.0006 336.3168 473.4759 339.8235 473.566 341.962 472.4916 341.962 472.4916 343.6865 470.6475 344.3661 469.9962 345.0457 469.3449 345.7458 468.6738 346.4315 467.9783 347.1171 467.2827 347.8235 466.566 348.4842 465.9121 349.145 465.2583 349.8257 464.5846 351.9105 462.4972 353.9641 460.3822 356.0149 458.2613 357.5513 456.6929 359.0884 455.1252 360.6262 453.5582 363.0188 451.1161 365.4064 448.6699 367.7813 446.2105 370.0954 443.8177 372.4282 441.4445 374.7649 439.0738 375.4693 438.3354 376.1736 437.5969 376.8993 436.8361 380.126 433.5917 382.1463 431.7709 386.5947 430.4249 390.139 430.5798 391.0943 430.8482 393.5423 433.316 394.21 433.9657 394.8777 434.6154 395.5657 435.2848 396.3108 436.0376 397.0558 436.7904 397.8235 437.566 399.6875 439.3166 401.5522 441.0665 403.4173 442.816 404.8928 444.2412 406.361 445.6735 407.8264 447.109 408.8319 448.0875 409.8444 449.0588 410.8635 450.023 412.357 451.4374 413.8261 452.8734 415.2923 454.316 416.163 455.1565 417.0338 455.9969 417.9309 456.8629 419.8235 459.566 419.8235 459.566 420.5442 462.8941 419.4917 468.2566 416.6275 470.7866 412.8235 474.566 411.9939 475.4184 411.1642 476.2708 410.3094 477.149 407.3913 480.1314 404.4451 483.0837 401.4915 486.0308 400.4075 487.1155 399.3237 488.2002 398.2401 489.2851 395.9851 491.5416 393.7283 493.7963 391.4702 496.0496 388.5738 498.9403 385.682 501.8355 382.7915 504.7319 380.562 506.965 378.3302 509.1957 376.0976 511.4257 375.0295 512.4931 373.9622 513.5613 372.8956 514.6302 371.412 516.1164 369.9252 517.5993 368.4375 519.0814 367.5926 519.9255 366.7477 520.7696 365.8771 521.6393 358.2174 528.8254 341.1757 528.3081 331.2551 528.1934 311.6504 526.9717 299.6234 514.8943 286.5714 501.4863 284.8298 499.6975 283.0716 497.9262 281.3118 496.1553 259.7495 474.2381 259.7495 474.2381 259.6751 462.6558 260.5209 453.4358 266.5424 447.755 273.1985 442.0035 274.2937 440.9903 275.3849 439.9727 276.4719 438.9508 286.2259 429.8807 286.2259 429.8807 292.8235 431.566Z"/>
<path transform="translate(0,0)" style="fill: rgb(0,157,206)" stroke-linecap="round" d="M1392.8235 415.566C1406.3535 415.566 1419.8835 415.566 1433.8235 415.566 1433.8235 485.856 1433.8235 556.146 1433.8235 628.566 1420.2935 628.566 1406.7635 628.566 1392.8235 628.566 1392.8235 558.276 1392.8235 487.986 1392.8235 415.566Z"/>
<path transform="translate(0,0)" style="fill: rgb(0,157,206)" stroke-linecap="round" d="M824.8235 466.566C824.8235 480.756 824.8235 494.946 824.8235 509.566 819.4713 509.9373 819.4713 509.9373 814.011 510.316 803.3342 511.1875 793.355 512.172 785.2532 519.8668 774.5795 532.5528 776.66 551.7088 776.5071 567.2379 776.4865 569.0143 776.4655 570.7908 776.4441 572.5673 776.3894 577.2031 776.3398 581.839 776.2913 586.4749 776.2318 592.0586 776.1658 597.6422 776.101 603.2258 776.0036 611.6725 775.9143 620.1192 775.8235 628.566 762.2935 628.566 748.7635 628.566 734.8235 628.566 734.8235 576.096 734.8235 523.626 734.8235 469.566 748.3535 469.566 761.8835 469.566 775.8235 469.566 776.3185 479.961 776.3185 479.961 776.8235 490.566 778.1435 489.0397 779.4635 487.5135 780.8235 485.941 792.7461 472.7536 806.9327 466.566 824.8235 466.566Z"/>
<script xmlns=""/></svg>