<svg width="16" height="24" viewBox="0 0 16 24" fill="none" xmlns="http://www.w3.org/2000/svg">
<path d="M16 24H0V0H16V24Z" stroke="#E5E7EB"/>
<path d="M16 22H0V6H16V22Z" stroke="#E5E7EB"/>
<path d="M14.3553 10.741C14.3655 10.8831 14.3655 11.0253 14.3655 11.1674C14.3655 15.5024 11.066 20.4973 5.03553 20.4973C3.17766 20.4973 1.45178 19.9593 0 19.0253C0.263969 19.0557 0.51775 19.0659 0.791875 19.0659C2.32484 19.0659 3.73603 18.5481 4.86294 17.6649C3.42131 17.6344 2.21319 16.6903 1.79694 15.3908C2 15.4212 2.20303 15.4415 2.41625 15.4415C2.71066 15.4415 3.00509 15.4009 3.27919 15.3298C1.77666 15.0253 0.649719 13.7055 0.649719 12.1116V12.071C1.08625 12.3146 1.59391 12.4669 2.13194 12.4872C1.24869 11.8983 0.670031 10.8933 0.670031 9.75622C0.670031 9.1471 0.832438 8.58872 1.11672 8.10141C2.73094 10.0913 5.15734 11.3907 7.87813 11.5329C7.82738 11.2892 7.79691 11.0354 7.79691 10.7816C7.79691 8.9745 9.25884 7.50244 11.0761 7.50244C12.0203 7.50244 12.873 7.89838 13.472 8.53797C14.2131 8.39585 14.9238 8.12172 15.5533 7.7461C15.3096 8.50754 14.7918 9.14713 14.1116 9.55319C14.7715 9.48216 15.4111 9.29938 15.9999 9.0456C15.5533 9.69532 14.9949 10.274 14.3553 10.741Z" fill="black"/>
</svg>
