<svg width="24" height="20" viewBox="0 0 24 20" fill="none" xmlns="http://www.w3.org/2000/svg">
<path d="M23 20H0V0H23V20Z" stroke="#E5E7EB"/>
<path d="M23.5 20H1V0H23.5V20Z" stroke="#E5E7EB"/>
<path d="M11.332 0.203125C11.9141 -0.0664062 12.5859 -0.0664062 13.168 0.203125L21.707 4.14844C22.0391 4.30078 22.25 4.63281 22.25 5C22.25 5.36719 22.0391 5.69922 21.707 5.85156L13.168 9.79688C12.5859 10.0664 11.9141 10.0664 11.332 9.79688L2.79297 5.85156C2.46094 5.69531 2.25 5.36328 2.25 5C2.25 4.63672 2.46094 4.30078 2.79297 4.14844L11.332 0.203125ZM19.6289 8.1875L21.707 9.14844C22.0391 9.30078 22.25 9.63281 22.25 10C22.25 10.3672 22.0391 10.6992 21.707 10.8516L13.168 14.7969C12.5859 15.0664 11.9141 15.0664 11.332 14.7969L2.79297 10.8516C2.46094 10.6953 2.25 10.3633 2.25 10C2.25 9.63672 2.46094 9.30078 2.79297 9.14844L4.87109 8.1875L10.8086 10.9297C11.7227 11.3516 12.7773 11.3516 13.6914 10.9297L19.6289 8.1875ZM13.6914 15.9297L19.6289 13.1875L21.707 14.1484C22.0391 14.3008 22.25 14.6328 22.25 15C22.25 15.3672 22.0391 15.6992 21.707 15.8516L13.168 19.7969C12.5859 20.0664 11.9141 20.0664 11.332 19.7969L2.79297 15.8516C2.46094 15.6953 2.25 15.3633 2.25 15C2.25 14.6367 2.46094 14.3008 2.79297 14.1484L4.87109 13.1875L10.8086 15.9297C11.7227 16.3516 12.7773 16.3516 13.6914 15.9297Z" fill="#009CDE"/>
</svg>
