<svg width="8" height="28" viewBox="0 0 8 28" fill="none" xmlns="http://www.w3.org/2000/svg">
<path d="M8 28H0V0H8V28Z" stroke="#E5E7EB"/>
<g clip-path="url(#clip0_737_3953)">
<path d="M1.875 8.125C1.875 7.62772 2.07254 7.15081 2.42417 6.79917C2.77581 6.44754 3.25272 6.25 3.75 6.25C4.24728 6.25 4.72419 6.44754 5.07583 6.79917C5.42746 7.15081 5.625 7.62772 5.625 8.125C5.625 8.62228 5.42746 9.09919 5.07583 9.45083C4.72419 9.80246 4.24728 10 3.75 10C3.25272 10 2.77581 9.80246 2.42417 9.45083C2.07254 9.09919 1.875 8.62228 1.875 8.125ZM0 13.75C0 13.0586 0.558594 12.5 1.25 12.5H3.75C4.44141 12.5 5 13.0586 5 13.75V22.5H6.25C6.94141 22.5 7.5 23.0586 7.5 23.75C7.5 24.4414 6.94141 25 6.25 25H1.25C0.558594 25 0 24.4414 0 23.75C0 23.0586 0.558594 22.5 1.25 22.5H2.5V15H1.25C0.558594 15 0 14.4414 0 13.75Z" fill="#009CDE"/>
</g>
<defs>
<clipPath id="clip0_737_3953">
<path d="M0 5H7.5V25H0V5Z" fill="white"/>
</clipPath>
</defs>
</svg>
