<svg width="21" height="24" viewBox="0 0 21 24" fill="none" xmlns="http://www.w3.org/2000/svg">
<path d="M21 24H0V0H21V24Z" stroke="#E5E7EB"/>
<path d="M21 21H1V5H21V21Z" stroke="#E5E7EB"/>
<path d="M19.1184 13.3656C20.884 11.6 20.884 8.74059 19.1184 6.97497C17.5559 5.41247 15.0934 5.20934 13.2965 6.49372L13.2465 6.52809C12.7965 6.84997 12.6934 7.47497 13.0152 7.92184C13.3371 8.36872 13.9621 8.47497 14.409 8.15309L14.459 8.11872C15.4621 7.40309 16.834 7.51559 17.7027 8.38747C18.6871 9.37184 18.6871 10.9656 17.7027 11.95L14.1965 15.4625C13.2121 16.4468 11.6184 16.4468 10.634 15.4625C9.76211 14.5906 9.64961 13.2187 10.3652 12.2187L10.3996 12.1687C10.7215 11.7187 10.6152 11.0937 10.1684 10.775C9.72148 10.4562 9.09336 10.5593 8.77461 11.0062L8.74023 11.0562C7.45273 12.85 7.65586 15.3125 9.21836 16.875C10.984 18.6406 13.8434 18.6406 15.609 16.875L19.1184 13.3656ZM2.88086 12.6343C1.11523 14.4 1.11523 17.2593 2.88086 19.025C4.44336 20.5875 6.90586 20.7906 8.70273 19.5062L8.75273 19.4718C9.20273 19.15 9.30586 18.525 8.98398 18.0781C8.66211 17.6312 8.03711 17.525 7.59023 17.8468L7.54023 17.8812C6.53711 18.5968 5.16523 18.4843 4.29648 17.6125C3.31211 16.625 3.31211 15.0312 4.29648 14.0468L7.80273 10.5375C8.78711 9.55309 10.3809 9.55309 11.3652 10.5375C12.2371 11.4093 12.3496 12.7812 11.634 13.7843L11.5996 13.8343C11.2777 14.2843 11.384 14.9093 11.8309 15.2281C12.2777 15.5468 12.9059 15.4437 13.2246 14.9968L13.259 14.9468C14.5465 13.15 14.3434 10.6875 12.7809 9.12497C11.0152 7.35934 8.15586 7.35934 6.39023 9.12497L2.88086 12.6343Z" fill="#009CDE"/>
</svg>
