<svg width="18" height="24" viewBox="0 0 18 24" fill="none" xmlns="http://www.w3.org/2000/svg">
<path d="M18 24H0V0H18V24Z" stroke="#E5E7EB"/>
<path d="M18 22H0V6H18V22Z" stroke="#E5E7EB"/>
<path d="M17.1769 9.87759C16.9806 9.13853 16.4023 8.55647 15.668 8.35894C14.337 8 9.00014 8 9.00014 8C9.00014 8 3.66327 8 2.3323 8.35894C1.59802 8.5565 1.0197 9.13853 0.823422 9.87759C0.466797 11.2172 0.466797 14.0121 0.466797 14.0121C0.466797 14.0121 0.466797 16.8071 0.823422 18.1467C1.0197 18.8857 1.59802 19.4435 2.3323 19.6411C3.66327 20 9.00014 20 9.00014 20C9.00014 20 14.337 20 15.668 19.6411C16.4023 19.4435 16.9806 18.8857 17.1769 18.1467C17.5335 16.8071 17.5335 14.0121 17.5335 14.0121C17.5335 14.0121 17.5335 11.2172 17.1769 9.87759ZM7.25467 16.5497V11.4745L11.7153 14.0122L7.25467 16.5497Z" fill="black"/>
</svg>
