<svg width="38" height="30" viewBox="0 0 38 30" fill="none" xmlns="http://www.w3.org/2000/svg">
<path d="M38 30H0V0H38V30Z" stroke="#E5E7EB"/>
<g clip-path="url(#clip0_717_2148)">
<path d="M23.2656 0.0705543C22.2695 -0.216555 21.2324 0.363523 20.9453 1.35962L13.4453 27.6096C13.1582 28.6057 13.7383 29.6428 14.7344 29.9299C15.7305 30.217 16.7676 29.637 17.0547 28.6409L24.5547 2.39087C24.8418 1.39477 24.2617 0.357664 23.2656 0.0705543ZM27.9883 7.10766C27.2559 7.84009 27.2559 9.02954 27.9883 9.76196L33.2207 15.0002L27.9824 20.2385C27.25 20.9709 27.25 22.1604 27.9824 22.8928C28.7148 23.6252 29.9043 23.6252 30.6367 22.8928L37.1992 16.3303C37.9316 15.5979 37.9316 14.4084 37.1992 13.676L30.6367 7.11352C29.9043 6.3811 28.7148 6.3811 27.9824 7.11352L27.9883 7.10766ZM10.0176 7.10766C9.28516 6.37524 8.0957 6.37524 7.36328 7.10766L0.800781 13.6702C0.0683594 14.4026 0.0683594 15.592 0.800781 16.3245L7.36328 22.887C8.0957 23.6194 9.28516 23.6194 10.0176 22.887C10.75 22.1545 10.75 20.9651 10.0176 20.2327L4.7793 15.0002L10.0176 9.76196C10.75 9.02954 10.75 7.84009 10.0176 7.10766Z" fill="#009CDE"/>
</g>
<defs>
<clipPath id="clip0_717_2148">
<path d="M0.25 0H37.75V30H0.25V0Z" fill="white"/>
</clipPath>
</defs>
</svg>
