<svg width="25" height="24" viewBox="0 0 25 24" fill="none" xmlns="http://www.w3.org/2000/svg">
<path d="M25 24H0V0H25V24Z" stroke="#E5E7EB"/>
<path d="M25 24H1V0H25V24Z" stroke="#E5E7EB"/>
<path d="M13 0C13.2156 0 13.4313 0.046875 13.6281 0.135938L22.4547 3.88125C23.486 4.31719 24.2547 5.33438 24.25 6.5625C24.2266 11.2125 22.3141 19.7203 14.2375 23.5875C13.4547 23.9625 12.5453 23.9625 11.7625 23.5875C3.68596 19.7203 1.77346 11.2125 1.75002 6.5625C1.74533 5.33438 2.51408 4.31719 3.54533 3.88125L12.3766 0.135938C12.5688 0.046875 12.7844 0 13 0ZM13 3.13125V20.85C19.4688 17.7188 21.2078 10.7859 21.25 6.62813L13 3.13125Z" fill="#009CDE"/>
</svg>
